<?xml version="1.0" encoding="UTF-8"?>
<svg width="31.55mm" height="35.059mm" version="1.1" viewBox="0 0 31.55 35.059" xmlns="http://www.w3.org/2000/svg" xmlns:xlink="http://www.w3.org/1999/xlink"><defs><linearGradient id="a" x1="-1528.2" x2="-1496.6" y1="130.2" y2="165.26" gradientTransform="translate(-1.3209)" gradientUnits="userSpaceOnUse"><stop stop-color="#0ea1c0" offset="0"/><stop stop-color="#02358c" offset="1"/></linearGradient></defs><g transform="translate(-77.788 -54.769)"><g transform="translate(1605.4 -74.659)"><g transform="translate(1.8852 -.77537)"><path d="m-1513.6 130.21c-3.5171-0.16319-6.8919 3.9925-2.1534 10.206-1e-4 -4e-3 0.6998-0.45733 1.5875-1.2206-5.5927-7.5393 2.8426-9.4966 2.9606-3.8339 0.071 3.3774-3.6727 6.0186-7.3329 7.6062-0.041-0.17508-0.083-0.34994-0.1318-0.52296-0.5418-1.9342-1.4843-3.7912-3.4545-4.8746-1.4826-0.81529-3.0687-0.96192-4.2887-0.57723-4.9604 1.5284-4.6066 10.079 5.3134 8.8026 0-2e-3 -0.046-0.83499-0.263-1.9854-9.3256 1.0738-6.8027-7.21-1.8397-4.4809 2.9602 1.6278 3.3755 6.1901 2.9202 10.154-0.1723-0.0519-0.3447-0.10273-0.5188-0.14728-1.946-0.49789-4.0251-0.61055-5.9485 0.55397-1.4473 0.87631-2.3675 2.1767-2.6443 3.4256-1.1566 5.06 6.4253 9.0287 10.28-0.2005 0 2e-3 -0.7461-0.37765-1.851-0.76481-3.7328 8.6132-9.6453 2.2866-4.8002-0.64699 2.8898-1.7497 7.0485 0.17149 10.254 2.5476-0.1311 0.12329-0.2614 0.24715-0.3871 0.37568-1.4042 1.4363-2.5412 3.1807-2.4944 5.4286 0.035 1.6916 0.7013 3.1387 1.6444 4.0029 3.8039 3.5316 11.032-1.0503 4.9666-9.0031 0 4e-3 -0.7003 0.45733-1.588 1.2206 5.5928 7.5393-2.8426 9.4966-2.9606 3.8339-0.071-3.3776 3.6729-6.0187 7.3334-7.6062 0.041 0.17524 0.083 0.3503 0.1318 0.52348 0.5418 1.9342 1.4839 3.7912 3.4541 4.8746 1.4826 0.81529 3.0686 0.96192 4.2886 0.57722 4.9604-1.5284 4.6066-10.079-5.3134-8.8031 0 2e-3 0.046 0.83551 0.263 1.9859 9.3256-1.0738 6.8032 7.2095 1.8402 4.4804-2.9601-1.6278-3.3759-6.1897-2.9207-10.153 0.1722 0.0519 0.3447 0.10274 0.5188 0.14728 1.946 0.49789 4.0251 0.61003 5.9485-0.55449 1.4474-0.87631 2.368-2.1762 2.6448-3.4251 1.1566-5.06-6.4259-9.0292-10.28 0.19998 0-2e-3 0.7462 0.37817 1.851 0.76533 3.7329-8.6132 9.6453-2.2871 4.8003 0.64648-2.8899 1.7497-7.0486-0.17098-10.254-2.5471 0.1311-0.12332 0.2619-0.24763 0.3876-0.3762 1.4041-1.4363 2.5412-3.1806 2.4944-5.4286-0.035-1.6916-0.7016-3.1387-1.6448-4.0029-0.8321-0.77254-1.828-1.1568-2.8128-1.2025zm-0.094 12.374c0.3963 0.29036 2.1629 1.6137 4.4235 2.6391-0.053 0.48837-0.3156 2.6802-0.073 5.1506-0.4493 0.19789-2.4792 1.0666-4.4979 2.512-0.3964-0.29038-2.1629-1.6142-4.4235-2.6396 0.053-0.48836 0.3156-2.6801 0.073-5.1506 0.4493-0.1979 2.4792-1.0661 4.498-2.5115z" color="#000000" fill="url(#a)" stroke-linejoin="bevel" style="-inkscape-stroke:none"/></g></g></g></svg>
