<?xml version="1.0" encoding="UTF-8"?>
<svg xmlns="http://www.w3.org/2000/svg" version="1.2" viewBox="0 0 6000 6000" width="6000" height="6000">
  <title>Everyone</title>
  <defs>
    <radialGradient id="g1" cx="0" cy="0" r="1" gradientUnits="userSpaceOnUse" gradientTransform="matrix(-899.328,-533.401,533.401,-899.328,2609.287,1932.632)">
      <stop offset="0" stop-color="#ffffff"></stop>
      <stop offset="1" stop-color="#829cd1"></stop>
    </radialGradient>
    <radialGradient id="g2" cx="0" cy="0" r="1" gradientUnits="userSpaceOnUse" gradientTransform="matrix(-1574.127,-933.634,933.634,-1574.127,3000.002,2499.313)">
      <stop offset="0" stop-color="#748dc1"></stop>
      <stop offset="1" stop-color="#000000"></stop>
    </radialGradient>
  </defs>
  <style>
		tspan { white-space:pre } 
		.s0 { fill: #829cd1;stroke: #6d3d21;stroke-width: .4 } 
		.s1 { opacity: .3;fill: url(#g1) } 
		.s2 { opacity: .1;fill: url(#g2) } 
		.s3 { fill: #ffffff;stroke: #ffffff;stroke-width: .4 } 
		.s4 { fill: none;stroke: #ffffff;stroke-width: 70.9 } 
		.s5 { fill: #ffffff;stroke: #ffffff;stroke-width: 14.8 } 
		.s6 { fill: none;stroke: #ffffff;stroke-width: 14.2 } 
		.s7 { fill: none;stroke: #ffffff;stroke-width: 69.2 } 
		.t8 { font-size: 628px;fill: #768ebf;font-weight: 400;font-family: "GillSansMT", "Gill Sans MT" } 
		.t9 { font-size: 774px;fill: #768ebf;font-weight: 700;font-family: "GillSansMT-Bold", "Gill Sans MT" } 
	</style>
  <g id="Layer 1">
    <path id="Layer" class="s0" d="m3000 727.1c996.3 0 1804.9 808.6 1804.9 1804.9 0 996.3-808.6 1804.9-1804.9 1804.9-996.3 0-1804.9-808.6-1804.9-1804.9 0-996.3 808.6-1804.9 1804.9-1804.9z"></path>
    <g id="background">
      <path id="Forme 2" fill-rule="evenodd" class="s1" d="m2609 2978.5c-568.2 0-1027.5-459.3-1027.5-1027.5 0-568.2 459.3-1027.5 1027.5-1027.5 568.2 0 1027.5 459.3 1027.5 1027.5 0 568.2-459.3 1027.5-1027.5 1027.5z"></path>
      <path id="Forme 1" fill-rule="evenodd" class="s2" d="m2999.5 4330c-994.6 0-1798.5-803.9-1798.5-1798.5 0-994.6 803.9-1798.5 1798.5-1798.5 994.6 0 1798.5 803.9 1798.5 1798.5 0 994.6-803.9 1798.5-1798.5 1798.5z"></path>
    </g>
    <g id="DOTS">
      <path id="Layer" class="s3" d="m1891 1167.9c48.8 0 88.3 39.5 88.3 88.3 0 48.7-39.5 88.2-88.3 88.2-48.7 0-88.2-39.5-88.2-88.2 0-48.8 39.5-88.3 88.2-88.3zm319.6 68c48.8 0 88.3 39.6 88.3 88.3 0 48.7-39.5 88.3-88.3 88.3-48.7 0-88.3-39.6-88.3-88.3 0-48.7 39.6-88.3 88.3-88.3zm285.7 522.8c48.8 0 88.3 39.5 88.3 88.3 0 48.7-39.5 88.2-88.3 88.2-48.7 0-88.2-39.5-88.2-88.2 0-48.8 39.5-88.3 88.2-88.3zm-517 517.9c48.7 0 88.3 39.5 88.3 88.3 0 48.7-39.6 88.2-88.3 88.2-48.7 0-88.3-39.5-88.3-88.2 0-48.8 39.6-88.3 88.3-88.3zm38.8 638.8c48.7 0 88.3 39.6 88.3 88.3 0 48.7-39.6 88.3-88.3 88.3-48.7 0-88.3-39.6-88.3-88.3 0-48.7 39.6-88.3 88.3-88.3zm981.9 319.6c48.7 0 88.3 39.6 88.3 88.3 0 48.7-39.6 88.3-88.3 88.3-48.7 0-88.3-39.6-88.3-88.3 0-48.7 39.6-88.3 88.3-88.3zm-294.3 875.9c48.7 0 88.2 39.5 88.2 88.3 0 48.7-39.5 88.3-88.2 88.3-48.8 0-88.3-39.6-88.3-88.3 0-48.8 39.5-88.3 88.3-88.3zm-638.1-735c48.7 0 88.3 39.6 88.3 88.3 0 48.8-39.6 88.3-88.3 88.3-48.7 0-88.3-39.5-88.3-88.3 0-48.7 39.6-88.3 88.3-88.3zm844.1-2340.9c48.7 0 88.3 39.6 88.3 88.3 0 48.7-39.6 88.3-88.3 88.3-48.7 0-88.3-39.6-88.3-88.3 0-48.7 39.6-88.3 88.3-88.3zm273.8 256.7c48.8 0 88.3 39.6 88.3 88.3 0 48.7-39.5 88.3-88.3 88.3-48.7 0-88.3-39.6-88.3-88.3 0-48.7 39.6-88.3 88.3-88.3zm-391.6 222.9c48.8 0 88.3 39.5 88.3 88.3 0 48.7-39.5 88.2-88.3 88.2-48.7 0-88.2-39.5-88.2-88.2 0-48.8 39.5-88.3 88.2-88.3zm518 2177.1c48.8 0 88.3 39.5 88.3 88.3 0 48.7-39.5 88.2-88.3 88.2-48.7 0-88.2-39.5-88.2-88.2 0-48.8 39.5-88.3 88.2-88.3zm121.3-1992c48.7 0 88.3 39.6 88.3 88.3 0 48.7-39.6 88.3-88.3 88.3-48.7 0-88.3-39.6-88.3-88.3 0-48.7 39.6-88.3 88.3-88.3zm-88.3-752.9c48.7 0 88.3 39.5 88.3 88.2 0 48.8-39.6 88.3-88.3 88.3-48.7 0-88.3-39.5-88.3-88.3 0-48.7 39.6-88.2 88.3-88.2zm509.8 66c48.7 0 88.3 39.5 88.3 88.3 0 48.7-39.6 88.3-88.3 88.3-48.7 0-88.3-39.6-88.3-88.3 0-48.8 39.6-88.3 88.3-88.3zm46.7 422.5c48.7 0 88.3 39.5 88.3 88.3 0 48.7-39.6 88.3-88.3 88.3-48.7 0-88.3-39.6-88.3-88.3 0-48.8 39.6-88.3 88.3-88.3zm653.3 411.7c48.8 0 88.3 39.5 88.3 88.2 0 48.8-39.5 88.3-88.3 88.3-48.7 0-88.2-39.5-88.2-88.3 0-48.7 39.5-88.2 88.2-88.2zm-284.2 4c48.7 0 88.3 39.5 88.3 88.2 0 48.8-39.6 88.3-88.3 88.3-48.7 0-88.3-39.5-88.3-88.3 0-48.7 39.6-88.2 88.3-88.2zm399 592.7c48.7 0 88.3 39.6 88.3 88.3 0 48.7-39.6 88.3-88.3 88.3-48.7 0-88.3-39.6-88.3-88.3 0-48.7 39.6-88.3 88.3-88.3zm-1327.6-301.9c48.7 0 88.3 39.6 88.3 88.3 0 48.7-39.6 88.3-88.3 88.3-48.7 0-88.3-39.6-88.3-88.3 0-48.7 39.6-88.3 88.3-88.3zm960.3 252.2c48.7 0 88.3 39.6 88.3 88.3 0 48.7-39.6 88.3-88.3 88.3-48.7 0-88.3-39.6-88.3-88.3 0-48.7 39.6-88.3 88.3-88.3zm-1081.5 394.2c48.7 0 88.2 39.5 88.2 88.3 0 48.7-39.5 88.2-88.2 88.2-48.8 0-88.3-39.5-88.3-88.2 0-48.8 39.5-88.3 88.3-88.3zm465.4 255.7c48.8 0 88.3 39.5 88.3 88.3 0 48.7-39.5 88.2-88.3 88.2-48.7 0-88.2-39.5-88.2-88.2 0-48.8 39.5-88.3 88.2-88.3zm805.8-112.5c48.8 0 88.3 39.6 88.3 88.3 0 48.7-39.5 88.3-88.3 88.3-48.7 0-88.2-39.6-88.2-88.3 0-48.7 39.5-88.3 88.2-88.3zm-753 1013.9c48.7 0 88.3 39.6 88.3 88.3 0 48.7-39.6 88.3-88.3 88.3-48.8 0-88.3-39.6-88.3-88.3 0-48.7 39.5-88.3 88.3-88.3zm-304.7-1592.9c48.7 0 88.3 39.6 88.3 88.3 0 48.7-39.6 88.3-88.3 88.3-48.7 0-88.3-39.6-88.3-88.3 0-48.7 39.6-88.3 88.3-88.3zm138.9-491.7c95.9 0 173.8 77.9 173.8 173.8 0 96-77.9 173.8-173.8 173.8-96 0-173.9-77.8-173.9-173.8 0-95.9 77.9-173.8 173.9-173.8zm-2056.6 275c96 0 173.9 77.8 173.9 173.8 0 95.9-77.9 173.8-173.9 173.8-95.9 0-173.8-77.9-173.8-173.8 0-96 77.9-173.8 173.8-173.8z"></path>
    </g>
    <g id="USA">
      <path id="Layer" fill-rule="evenodd" class="s4" d="m1887.4 1265.4l324.1 64.5 266.1 520.2-510.2 512.4-467-30.7z"></path>
      <g id="sub USA">
        <path id="Layer" fill-rule="evenodd" class="s5" d="m1914.8 1289.1l533.4 515.1m-266.7-421.1l-207 991.7m-72.6-1102.4l65.5 1083m488.3-498.2l-989.1 469.2"></path>
      </g>
    </g>
    <g id="SouthAM">
      <path id="Layer" fill-rule="evenodd" class="s4" d="m1505.3 2311.8l507.9 691.8"></path>
      <path id="Layer" fill-rule="evenodd" class="s4" d="m2027.7 3003.6l29 454.7 638.5 735.3 304.8-861z"></path>
      <g id="sub southam">
        <path id="Layer" fill-rule="evenodd" class="s6" d="m2042.2 3042.3l667.5 1131.9"></path>
        <path id="Layer" fill-rule="evenodd" class="s6" d="m2982.8 3338.5l-897.5 113.9"></path>
      </g>
    </g>
    <g id="Groenland">
      <path id="Layer" fill-rule="evenodd" class="s4" d="m2916.8 1110.1l266 258.9-391.8 234.5z"></path>
    </g>
    <g id="Europe">
      <path id="Layer" fill-rule="evenodd" class="s7" d="m3489.6 2106.7l-142.2 116.6"></path>
      <path id="Layer" fill-rule="evenodd" class="s7" d="m4556.7 1932.2l111.2 587.7"></path>
      <path id="Layer" fill-rule="evenodd" class="s7" d="m3363.5 1050.1l485.9 51.7 699.4 831.5h-278.7l-708.9 118.2 335.4-524.5z"></path>
      <g id="sub europe">
        <path id="Layer" fill-rule="evenodd" class="s6" d="m3851.6 1112.2l43.3 401.5"></path>
        <path id="Layer" fill-rule="evenodd" class="s6" d="m4277.3 1951.6l-384.8-809.9"></path>
        <path id="Layer" fill-rule="evenodd" class="s6" d="m4545.4 1948l-636.1-431.4"></path>
      </g>
    </g>
    <g id="Africa">
      <path id="Layer" fill-rule="evenodd" class="s4" d="m3418.4 2442.5l873.1 43.5 193.5 532.1-740.1 996.5-62.9-870.7-463.8-261.2z"></path>
      <g id="sub africa">
        <path id="Layer" fill-rule="evenodd" class="s6" d="m3445 2437.7l261.2 696.5 793.3-95.1-193.5-538.6-48.3 54.9-512.8 1464"></path>
        <path id="Layer" fill-rule="evenodd" class="s6" d="m4298.6 2490.9l-1066.4 386.9"></path>
      </g>
    </g>
    <text id="everyone" style="transform: matrix(1.243,0,0,1.243,1162.979,4452.78)">
      <tspan x="0" y="428.6" class="t8">e</tspan>
      <tspan y="428.6" class="t8">v</tspan>
      <tspan y="428.6" class="t8">e</tspan>
      <tspan y="428.6" class="t8">r</tspan>
      <tspan y="428.6" class="t8">y</tspan>
      <tspan y="428.6" class="t8">o</tspan>
      <tspan y="428.6" class="t8">n</tspan>
      <tspan y="428.6" class="t8">e
</tspan>
    </text>
    <text id=".AI" style="transform: matrix(.685,0,0,.685,4114.207,4627.853)">
      <tspan x="0" y="528" class="t9">.</tspan>
      <tspan y="528" class="t9">A</tspan>
      <tspan y="528" class="t9">I</tspan>
      <tspan y="528" class="t9">
</tspan>
    </text>
  </g>
</svg>
