<?xml version="1.0" encoding="UTF-8"?>
<svg width="98.524mm" height="98.524mm" version="1.1" viewBox="0 0 98.524 98.524" xmlns="http://www.w3.org/2000/svg"><g transform="translate(-70.336 36.904)"><g transform="matrix(.35278 0 0 -.35278 103.35 -36.321)"><path d="m0 0c0.204 0 0.37 0.165 0.37 0.37 0 0.204-0.166 0.369-0.37 0.369s-0.37-0.165-0.37-0.369c0-0.205 0.166-0.37 0.37-0.37" fill="#B22222"/></g><g transform="matrix(.35278 0 0 -.35278 106.97 -36.211)"><path d="m0 0c0.377 0 0.683 0.306 0.683 0.683 0 0.376-0.306 0.682-0.683 0.682s-0.682-0.306-0.682-0.682c0-0.377 0.305-0.683 0.682-0.683" fill="#B22222"/></g><g transform="matrix(.35278 0 0 -.35278 110.59 -36.111)"><path d="m0 0c0.534 0 0.967 0.433 0.967 0.967s-0.433 0.967-0.967 0.967-0.967-0.433-0.967-0.967 0.433-0.967 0.967-0.967" fill="#B22222"/></g><g transform="matrix(.35278 0 0 -.35278 114.21 -36.051)"><path d="m0 0c0.629 0 1.138 0.51 1.138 1.138s-0.509 1.138-1.138 1.138c-0.628 0-1.138-0.51-1.138-1.138s0.51-1.138 1.138-1.138" fill="#B22222"/></g><g transform="matrix(.35278 0 0 -.35278 117.83 -36)"><path d="m0 0c0.707 0 1.28 0.573 1.28 1.28s-0.573 1.28-1.28 1.28-1.28-0.573-1.28-1.28 0.573-1.28 1.28-1.28" fill="#B22222"/></g><g transform="matrix(.35278 0 0 -.35278 121.45 -36.03)"><path d="m0 0c0.66 0 1.195 0.535 1.195 1.195 0 0.659-0.535 1.194-1.195 1.194-0.659 0-1.194-0.535-1.194-1.194 0-0.66 0.535-1.195 1.194-1.195" fill="#B22222"/></g><g transform="matrix(.35278 0 0 -.35278 125.07 -36.051)"><path d="m0 0c0.628 0 1.138 0.51 1.138 1.138s-0.51 1.138-1.138 1.138-1.137-0.51-1.137-1.138 0.509-1.138 1.137-1.138" fill="#B22222"/></g><g transform="matrix(.35278 0 0 -.35278 128.68 -36.131)"><path d="m0 0c0.503 0 0.91 0.407 0.91 0.91s-0.407 0.911-0.91 0.911c-0.502 0-0.91-0.408-0.91-0.911s0.408-0.91 0.91-0.91" fill="#B22222"/></g><g transform="matrix(.35278 0 0 -.35278 132.3 -36.241)"><path d="m0 0c0.33 0 0.597 0.268 0.597 0.597 0 0.33-0.267 0.598-0.597 0.598s-0.597-0.268-0.597-0.598c0-0.329 0.267-0.597 0.597-0.597" fill="#B22222"/></g><g transform="matrix(.35278 0 0 -.35278 135.92 -36.341)"><path d="m0 0c0.173 0 0.313 0.14 0.313 0.313s-0.14 0.313-0.313 0.313-0.313-0.14-0.313-0.313 0.14-0.313 0.313-0.313" fill="#B22222"/></g><g transform="matrix(.35278 0 0 -.35278 96.117 -32.623)"><path d="m0 0c0.33 0 0.598 0.267 0.598 0.597s-0.268 0.598-0.598 0.598-0.597-0.268-0.597-0.598 0.267-0.597 0.597-0.597" fill="#B22222"/></g><g transform="matrix(.35278 0 0 -.35278 99.735 -32.462)"><path d="m0 0c0.581 0 1.052 0.471 1.052 1.052 0 0.582-0.471 1.053-1.052 1.053s-1.052-0.471-1.052-1.053c0-0.581 0.471-1.052 1.052-1.052" fill="#B22222"/></g><g transform="matrix(.35278 0 0 -.35278 103.35 -32.281)"><path d="m0 0c0.864 0 1.565 0.7 1.565 1.564s-0.701 1.565-1.565 1.565-1.564-0.701-1.564-1.565 0.7-1.564 1.564-1.564" fill="#B22222"/></g><g transform="matrix(.35278 0 0 -.35278 106.97 -32.181)"><path d="m0 0c1.021 0 1.849 0.828 1.849 1.849s-0.828 1.849-1.849 1.849-1.849-0.828-1.849-1.849 0.828-1.849 1.849-1.849" fill="#B22222"/></g><g transform="matrix(.35278 0 0 -.35278 110.59 -32.081)"><path d="m0 0c1.178 0 2.134 0.955 2.134 2.133 0 1.179-0.956 2.133-2.134 2.133s-2.133-0.954-2.133-2.133c0-1.178 0.955-2.133 2.133-2.133" fill="#B22222"/></g><g transform="matrix(.35278 0 0 -.35278 114.21 -32.011)"><path d="m0 0c1.288 0 2.333 1.044 2.333 2.332s-1.045 2.333-2.333 2.333-2.332-1.045-2.332-2.333 1.044-2.332 2.332-2.332" fill="#B22222"/></g><g transform="matrix(.35278 0 0 -.35278 117.83 -31.98)"><path d="m0 0c1.336 0 2.418 1.083 2.418 2.418s-1.082 2.417-2.418 2.417c-1.335 0-2.418-1.082-2.418-2.417s1.083-2.418 2.418-2.418" fill="#B22222"/></g><g transform="matrix(.35278 0 0 -.35278 121.45 -31.98)"><path d="m0 0c1.336 0 2.418 1.083 2.418 2.418s-1.082 2.417-2.418 2.417c-1.335 0-2.418-1.082-2.418-2.417s1.083-2.418 2.418-2.418" fill="#B22222"/></g><g transform="matrix(.35278 0 0 -.35278 125.07 -32.011)"><path d="m0 0c1.288 0 2.333 1.044 2.333 2.332s-1.045 2.333-2.333 2.333-2.332-1.045-2.332-2.333 1.044-2.332 2.332-2.332" fill="#B22222"/></g><g transform="matrix(.35278 0 0 -.35278 128.68 -32.081)"><path d="m0 0c1.178 0 2.134 0.955 2.134 2.133 0 1.179-0.956 2.133-2.134 2.133s-2.133-0.954-2.133-2.133c0-1.178 0.955-2.133 2.133-2.133" fill="#B22222"/></g><g transform="matrix(.35278 0 0 -.35278 132.3 -32.201)"><path d="m0 0c0.99 0 1.792 0.802 1.792 1.792s-0.802 1.792-1.792 1.792-1.792-0.802-1.792-1.792 0.802-1.792 1.792-1.792" fill="#B22222"/></g><g transform="matrix(.35278 0 0 -.35278 135.92 -32.312)"><path d="m0 0c0.817 0 1.479 0.662 1.479 1.479s-0.662 1.479-1.479 1.479-1.479-0.662-1.479-1.479 0.662-1.479 1.479-1.479" fill="#B22222"/></g><g transform="matrix(.35278 0 0 -.35278 139.54 -32.492)"><path d="m0 0c0.534 0 0.967 0.433 0.967 0.967s-0.433 0.967-0.967 0.967-0.967-0.433-0.967-0.967 0.433-0.967 0.967-0.967" fill="#B22222"/></g><g transform="matrix(.35278 0 0 -.35278 143.16 -32.673)"><path d="m0 0c0.252 0 0.455 0.203 0.455 0.455 0 0.251-0.203 0.455-0.455 0.455-0.251 0-0.455-0.204-0.455-0.455 0-0.252 0.204-0.455 0.455-0.455" fill="#B22222"/></g><g transform="matrix(.35278 0 0 -.35278 88.88 -29.104)"><path d="m0 0c0.173 0 0.313 0.14 0.313 0.313s-0.14 0.313-0.313 0.313-0.313-0.14-0.313-0.313 0.14-0.313 0.313-0.313" fill="#B22222"/></g><g transform="matrix(.35278 0 0 -.35278 92.498 -28.874)"><path d="m0 0c0.534 0 0.967 0.433 0.967 0.967s-0.433 0.967-0.967 0.967-0.967-0.433-0.967-0.967 0.433-0.967 0.967-0.967" fill="#B22222"/></g><g transform="matrix(.35278 0 0 -.35278 96.117 -28.633)"><path d="m0 0c0.911 0 1.65 0.739 1.65 1.649 0 0.912-0.739 1.65-1.65 1.65s-1.65-0.738-1.65-1.65c0-0.91 0.739-1.649 1.65-1.649" fill="#B22222"/></g><g transform="matrix(.35278 0 0 -.35278 99.735 -28.462)"><path d="m0 0c1.178 0 2.134 0.955 2.134 2.133s-0.956 2.133-2.134 2.133-2.133-0.955-2.133-2.133 0.955-2.133 2.133-2.133" fill="#B22222"/></g><g transform="matrix(.35278 0 0 -.35278 103.35 -28.292)"><path d="m0 0c1.445 0 2.617 1.172 2.617 2.617s-1.172 2.616-2.617 2.616-2.617-1.171-2.617-2.616 1.172-2.617 2.617-2.617" fill="#B22222"/></g><g transform="matrix(.35278 0 0 -.35278 106.97 -28.181)"><path d="m0 0c1.618 0 2.93 1.312 2.93 2.93s-1.312 2.929-2.93 2.929-2.929-1.311-2.929-2.929 1.311-2.93 2.929-2.93" fill="#B22222"/></g><g transform="matrix(.35278 0 0 -.35278 110.59 -28.091)"><path d="m0 0c1.759 0 3.186 1.426 3.186 3.185 0 1.76-1.427 3.186-3.186 3.186-1.76 0-3.186-1.426-3.186-3.186 0-1.759 1.426-3.185 3.186-3.185" fill="#B22222"/></g><g transform="matrix(.35278 0 0 -.35278 114.21 -28.051)"><path d="m0 0c1.822 0 3.299 1.477 3.299 3.299s-1.477 3.3-3.299 3.3-3.299-1.478-3.299-3.3 1.477-3.299 3.299-3.299" fill="#B22222"/></g><g transform="matrix(.35278 0 0 -.35278 117.83 -28.011)"><path d="m0 0c1.885 0 3.413 1.528 3.413 3.413s-1.528 3.414-3.413 3.414-3.413-1.529-3.413-3.414 1.528-3.413 3.413-3.413" fill="#B22222"/></g><g transform="matrix(.35278 0 0 -.35278 121.45 -28.011)"><path d="m0 0c1.885 0 3.413 1.528 3.413 3.413s-1.528 3.414-3.413 3.414-3.413-1.529-3.413-3.414 1.528-3.413 3.413-3.413" fill="#B22222"/></g><g transform="matrix(.35278 0 0 -.35278 125.07 -28.051)"><path d="m0 0c1.822 0 3.299 1.477 3.299 3.299s-1.477 3.3-3.299 3.3-3.299-1.478-3.299-3.3 1.477-3.299 3.299-3.299" fill="#B22222"/></g><g transform="matrix(.35278 0 0 -.35278 128.68 -28.111)"><path d="m0 0c1.728 0 3.129 1.401 3.129 3.129s-1.401 3.129-3.129 3.129-3.128-1.401-3.128-3.129 1.4-3.129 3.128-3.129" fill="#B22222"/></g><g transform="matrix(.35278 0 0 -.35278 132.3 -28.201)"><path d="m0 0c1.587 0 2.873 1.286 2.873 2.872 0 1.587-1.286 2.873-2.873 2.873s-2.873-1.286-2.873-2.873c0-1.586 1.286-2.872 2.873-2.872" fill="#B22222"/></g><g transform="matrix(.35278 0 0 -.35278 135.92 -28.322)"><path d="m0 0c1.398 0 2.532 1.133 2.532 2.531s-1.134 2.532-2.532 2.532-2.531-1.134-2.531-2.532 1.133-2.531 2.531-2.531" fill="#B22222"/></g><g transform="matrix(.35278 0 0 -.35278 139.54 -28.482)"><path d="m0 0c1.147 0 2.077 0.93 2.077 2.076 0 1.147-0.93 2.077-2.077 2.077-1.146 0-2.076-0.93-2.076-2.077 0-1.146 0.93-2.076 2.076-2.076" fill="#B22222"/></g><g transform="matrix(.35278 0 0 -.35278 143.16 -28.663)"><path d="m0 0c0.864 0 1.565 0.7 1.565 1.564s-0.701 1.565-1.565 1.565-1.564-0.701-1.564-1.565 0.7-1.564 1.564-1.564" fill="#B22222"/></g><g transform="matrix(.35278 0 0 -.35278 146.78 -28.894)"><path d="m0 0c0.503 0 0.91 0.407 0.91 0.91 0 0.502-0.407 0.91-0.91 0.91-0.502 0-0.91-0.408-0.91-0.91 0-0.503 0.408-0.91 0.91-0.91" fill="#B22222"/></g><g transform="matrix(.35278 0 0 -.35278 150.4 -29.165)"><path d="m0 0c0.079 0 0.142 0.064 0.142 0.142 0 0.079-0.063 0.142-0.142 0.142-0.078 0-0.142-0.063-0.142-0.142 0-0.078 0.064-0.142 0.142-0.142" fill="#B22222"/></g><g transform="matrix(.35278 0 0 -.35278 85.261 -25.406)"><path d="m0 0c0.298 0 0.541 0.242 0.541 0.54 0 0.299-0.243 0.541-0.541 0.541s-0.54-0.242-0.54-0.541c0-0.298 0.242-0.54 0.54-0.54" fill="#B22222"/></g><g transform="matrix(.35278 0 0 -.35278 88.88 -25.145)"><path d="m0 0c0.707 0 1.28 0.573 1.28 1.28s-0.573 1.28-1.28 1.28-1.28-0.573-1.28-1.28 0.573-1.28 1.28-1.28" fill="#B22222"/></g><g transform="matrix(.35278 0 0 -.35278 92.498 -24.894)"><path d="m0 0c1.1 0 1.991 0.891 1.991 1.991s-0.891 1.991-1.991 1.991c-1.099 0-1.991-0.891-1.991-1.991s0.892-1.991 1.991-1.991" fill="#B22222"/></g><g transform="matrix(.35278 0 0 -.35278 96.117 -24.673)"><path d="m0 0c1.445 0 2.617 1.172 2.617 2.617s-1.172 2.616-2.617 2.616-2.617-1.171-2.617-2.616 1.172-2.617 2.617-2.617" fill="#B22222"/></g><g transform="matrix(.35278 0 0 -.35278 99.735 -24.523)"><path d="m0 0c1.681 0 3.044 1.362 3.044 3.043s-1.363 3.044-3.044 3.044-3.043-1.363-3.043-3.044 1.362-3.043 3.043-3.043" fill="#B22222"/></g><g transform="matrix(.35278 0 0 -.35278 103.35 -24.352)"><path d="m0 0c1.948 0 3.527 1.579 3.527 3.527s-1.579 3.527-3.527 3.527-3.527-1.579-3.527-3.527 1.579-3.527 3.527-3.527" fill="#B22222"/></g><g transform="matrix(.35278 0 0 -.35278 106.97 -24.242)"><path d="m0 0c2.121 0 3.84 1.719 3.84 3.84 0 2.12-1.719 3.839-3.84 3.839-2.12 0-3.84-1.719-3.84-3.839 0-2.121 1.72-3.84 3.84-3.84" fill="#B22222"/></g><g transform="matrix(.35278 0 0 -.35278 110.59 -24.161)"><path d="m0 0c2.246 0 4.067 1.821 4.067 4.067s-1.821 4.068-4.067 4.068-4.067-1.822-4.067-4.068 1.821-4.067 4.067-4.067" fill="#B22222"/></g><g transform="matrix(.35278 0 0 -.35278 114.21 -24.111)"><path d="m0 0c2.325 0 4.21 1.885 4.21 4.209 0 2.325-1.885 4.21-4.21 4.21s-4.209-1.885-4.209-4.21c0-2.324 1.884-4.209 4.209-4.209" fill="#B22222"/></g><g transform="matrix(.35278 0 0 -.35278 117.83 -24.081)"><path d="m0 0c2.372 0 4.295 1.923 4.295 4.295s-1.923 4.295-4.295 4.295-4.295-1.923-4.295-4.295 1.923-4.295 4.295-4.295" fill="#B22222"/></g><g transform="matrix(.35278 0 0 -.35278 121.45 -24.101)"><path d="m0 0c2.341 0 4.238 1.897 4.238 4.238s-1.897 4.238-4.238 4.238c-2.34 0-4.238-1.897-4.238-4.238s1.898-4.238 4.238-4.238" fill="#B22222"/></g><g transform="matrix(.35278 0 0 -.35278 125.07 -24.111)"><path d="m0 0c2.325 0 4.21 1.885 4.21 4.209 0 2.325-1.885 4.21-4.21 4.21s-4.209-1.885-4.209-4.21c0-2.324 1.884-4.209 4.209-4.209" fill="#B22222"/></g><g transform="matrix(.35278 0 0 -.35278 128.68 -24.181)"><path d="m0 0c2.215 0 4.011 1.796 4.011 4.01 0 2.216-1.796 4.011-4.011 4.011s-4.01-1.795-4.01-4.011c0-2.214 1.795-4.01 4.01-4.01" fill="#B22222"/></g><g transform="matrix(.35278 0 0 -.35278 132.3 -24.252)"><path d="m0 0c2.105 0 3.812 1.706 3.812 3.811 0 2.106-1.707 3.812-3.812 3.812s-3.811-1.706-3.811-3.812c0-2.105 1.706-3.811 3.811-3.811" fill="#B22222"/></g><g transform="matrix(.35278 0 0 -.35278 135.92 -24.372)"><path d="m0 0c1.917 0 3.47 1.554 3.47 3.47 0 1.917-1.553 3.47-3.47 3.47-1.916 0-3.47-1.553-3.47-3.47 0-1.916 1.554-3.47 3.47-3.47" fill="#B22222"/></g><g transform="matrix(.35278 0 0 -.35278 139.54 -24.523)"><path d="m0 0c1.681 0 3.044 1.362 3.044 3.043s-1.363 3.044-3.044 3.044-3.043-1.363-3.043-3.044 1.362-3.043 3.043-3.043" fill="#B22222"/></g><g transform="matrix(.35278 0 0 -.35278 143.16 -24.703)"><path d="m0 0c1.398 0 2.531 1.134 2.531 2.532s-1.133 2.531-2.531 2.531-2.531-1.133-2.531-2.531 1.133-2.532 2.531-2.532" fill="#B22222"/></g><g transform="matrix(.35278 0 0 -.35278 146.78 -24.944)"><path d="m0 0c1.021 0 1.849 0.828 1.849 1.849s-0.828 1.848-1.849 1.848-1.849-0.827-1.849-1.848 0.828-1.849 1.849-1.849" fill="#B22222"/></g><g transform="matrix(.35278 0 0 -.35278 150.4 -25.195)"><path d="m0 0c0.628 0 1.138 0.51 1.138 1.138s-0.51 1.138-1.138 1.138-1.138-0.51-1.138-1.138 0.51-1.138 1.138-1.138" fill="#B22222"/></g><g transform="matrix(.35278 0 0 -.35278 154.01 -25.466)"><path d="m0 0c0.204 0 0.37 0.165 0.37 0.37 0 0.204-0.166 0.37-0.37 0.37s-0.37-0.166-0.37-0.37c0-0.205 0.166-0.37 0.37-0.37" fill="#B22222"/></g><g transform="matrix(.35278 0 0 -.35278 81.643 -21.787)"><path d="m0 0c0.299 0 0.541 0.242 0.541 0.541 0 0.298-0.242 0.54-0.541 0.54-0.298 0-0.54-0.242-0.54-0.54 0-0.299 0.242-0.541 0.54-0.541" fill="#B22222"/></g><g transform="matrix(.35278 0 0 -.35278 85.261 -21.506)"><path d="m0 0c0.738 0 1.337 0.599 1.337 1.337s-0.599 1.337-1.337 1.337-1.337-0.599-1.337-1.337 0.599-1.337 1.337-1.337" fill="#B22222"/></g><g transform="matrix(.35278 0 0 -.35278 88.88 -21.205)"><path d="m0 0c1.21 0 2.191 0.981 2.191 2.19 0 1.21-0.981 2.19-2.191 2.19-1.209 0-2.19-0.98-2.19-2.19 0-1.209 0.981-2.19 2.19-2.19" fill="#B22222"/></g><g transform="matrix(.35278 0 0 -.35278 92.498 -20.964)"><path d="m0 0c1.587 0 2.873 1.286 2.873 2.873 0 1.586-1.286 2.873-2.873 2.873s-2.873-1.287-2.873-2.873c0-1.587 1.286-2.873 2.873-2.873" fill="#B22222"/></g><g transform="matrix(.35278 0 0 -.35278 96.117 -20.774)"><path d="m0 0c1.885 0 3.413 1.528 3.413 3.413s-1.528 3.413-3.413 3.413-3.413-1.528-3.413-3.413 1.528-3.413 3.413-3.413" fill="#B22222"/></g><g transform="matrix(.35278 0 0 -.35278 99.735 -20.583)"><path d="m0 0c2.184 0 3.954 1.77 3.954 3.953 0 2.184-1.77 3.954-3.954 3.954-2.183 0-3.953-1.77-3.953-3.954 0-2.183 1.77-3.953 3.953-3.953" fill="#B22222"/></g><g transform="matrix(.35278 0 0 -.35278 103.35 -20.462)"><path d="m0 0c2.372 0 4.295 1.923 4.295 4.295s-1.923 4.295-4.295 4.295-4.295-1.923-4.295-4.295 1.923-4.295 4.295-4.295" fill="#B22222"/></g><g transform="matrix(.35278 0 0 -.35278 106.97 -20.372)"><path d="m0 0c2.514 0 4.551 2.037 4.551 4.551 0 2.513-2.037 4.551-4.551 4.551-2.513 0-4.551-2.038-4.551-4.551 0-2.514 2.038-4.551 4.551-4.551" fill="#B22222"/></g><g transform="matrix(.35278 0 0 -.35278 110.59 -20.302)"><path d="m0 0c2.623 0 4.75 2.127 4.75 4.75 0 2.624-2.127 4.75-4.75 4.75s-4.75-2.126-4.75-4.75c0-2.623 2.127-4.75 4.75-4.75" fill="#B22222"/></g><g transform="matrix(.35278 0 0 -.35278 128.68 -20.312)"><path d="m0 0c2.608 0 4.722 2.114 4.722 4.722 0 2.607-2.114 4.721-4.722 4.721-2.607 0-4.721-2.114-4.721-4.721 0-2.608 2.114-4.722 4.721-4.722" fill="#B22222"/></g><g transform="matrix(.35278 0 0 -.35278 132.3 -20.382)"><path d="m0 0c2.498 0 4.523 2.025 4.523 4.522 0 2.498-2.025 4.523-4.523 4.523s-4.522-2.025-4.522-4.523c0-2.497 2.024-4.522 4.522-4.522" fill="#B22222"/></g><g transform="matrix(.35278 0 0 -.35278 135.92 -20.483)"><path d="m0 0c2.341 0 4.238 1.897 4.238 4.238 0 2.34-1.897 4.238-4.238 4.238-2.34 0-4.238-1.898-4.238-4.238 0-2.341 1.898-4.238 4.238-4.238" fill="#B22222"/></g><g transform="matrix(.35278 0 0 -.35278 139.54 -20.623)"><path d="m0 0c2.121 0 3.84 1.719 3.84 3.84s-1.719 3.84-3.84 3.84c-2.12 0-3.839-1.719-3.839-3.84s1.719-3.84 3.839-3.84" fill="#B22222"/></g><g transform="matrix(.35278 0 0 -.35278 143.16 -20.794)"><path d="m0 0c1.854 0 3.356 1.503 3.356 3.356s-1.502 3.356-3.356 3.356-3.356-1.503-3.356-3.356 1.502-3.356 3.356-3.356" fill="#B22222"/></g><g transform="matrix(.35278 0 0 -.35278 146.78 -21.014)"><path d="m0 0c1.508 0 2.731 1.223 2.731 2.731s-1.223 2.73-2.731 2.73-2.73-1.222-2.73-2.73 1.222-2.731 2.73-2.731" fill="#B22222"/></g><g transform="matrix(.35278 0 0 -.35278 150.4 -21.245)"><path d="m0 0c1.147 0 2.077 0.929 2.077 2.076s-0.93 2.076-2.077 2.076-2.076-0.929-2.076-2.076 0.929-2.076 2.076-2.076" fill="#B22222"/></g><g transform="matrix(.35278 0 0 -.35278 154.01 -21.556)"><path d="m0 0c0.66 0 1.195 0.535 1.195 1.195 0 0.659-0.535 1.194-1.195 1.194-0.659 0-1.194-0.535-1.194-1.194 0-0.66 0.535-1.195 1.194-1.195" fill="#B22222"/></g><g transform="matrix(.35278 0 0 -.35278 157.63 -21.847)"><path d="m0 0c0.204 0 0.37 0.165 0.37 0.37 0 0.204-0.166 0.369-0.37 0.369s-0.369-0.165-0.369-0.369c0-0.205 0.165-0.37 0.369-0.37" fill="#B22222"/></g><g transform="matrix(.35278 0 0 -.35278 78.024 -18.249)"><path d="m0 0c0.173 0 0.313 0.14 0.313 0.313s-0.14 0.313-0.313 0.313-0.313-0.14-0.313-0.313 0.14-0.313 0.313-0.313" fill="#B22222"/></g><g transform="matrix(.35278 0 0 -.35278 81.643 -17.908)"><path d="m0 0c0.707 0 1.28 0.573 1.28 1.28s-0.573 1.28-1.28 1.28-1.28-0.573-1.28-1.28 0.573-1.28 1.28-1.28" fill="#B22222"/></g><g transform="matrix(.35278 0 0 -.35278 85.261 -17.586)"><path d="m0 0c1.21 0 2.19 0.98 2.19 2.19s-0.98 2.19-2.19 2.19c-1.209 0-2.19-0.98-2.19-2.19s0.981-2.19 2.19-2.19" fill="#B22222"/></g><g transform="matrix(.35278 0 0 -.35278 88.88 -17.326)"><path d="m0 0c1.618 0 2.93 1.312 2.93 2.93s-1.312 2.929-2.93 2.929-2.929-1.311-2.929-2.929 1.311-2.93 2.929-2.93" fill="#B22222"/></g><g transform="matrix(.35278 0 0 -.35278 92.498 -17.095)"><path d="m0 0c1.98 0 3.584 1.605 3.584 3.584s-1.604 3.584-3.584 3.584c-1.979 0-3.584-1.605-3.584-3.584s1.605-3.584 3.584-3.584" fill="#B22222"/></g><g transform="matrix(.35278 0 0 -.35278 96.117 -16.894)"><path d="m0 0c2.294 0 4.153 1.859 4.153 4.153 0 2.293-1.859 4.152-4.153 4.152-2.293 0-4.152-1.859-4.152-4.152 0-2.294 1.859-4.153 4.152-4.153" fill="#B22222"/></g><g transform="matrix(.35278 0 0 -.35278 99.735 -16.754)"><path d="m0 0c2.514 0 4.551 2.037 4.551 4.551 0 2.513-2.037 4.551-4.551 4.551-2.513 0-4.551-2.038-4.551-4.551 0-2.514 2.038-4.551 4.551-4.551" fill="#B22222"/></g><g transform="matrix(.35278 0 0 -.35278 135.92 -16.643)"><path d="m0 0c2.686 0 4.864 2.178 4.864 4.864s-2.178 4.864-4.864 4.864-4.864-2.178-4.864-4.864 2.178-4.864 4.864-4.864" fill="#B22222"/></g><g transform="matrix(.35278 0 0 -.35278 139.54 -16.764)"><path d="m0 0c2.498 0 4.523 2.025 4.523 4.522 0 2.498-2.025 4.523-4.523 4.523s-4.522-2.025-4.522-4.523c0-2.497 2.024-4.522 4.522-4.522" fill="#B22222"/></g><g transform="matrix(.35278 0 0 -.35278 143.16 -16.924)"><path d="m0 0c2.247 0 4.068 1.821 4.068 4.067 0 2.247-1.821 4.068-4.068 4.068-2.246 0-4.067-1.821-4.067-4.068 0-2.246 1.821-4.067 4.067-4.067" fill="#B22222"/></g><g transform="matrix(.35278 0 0 -.35278 146.78 -17.115)"><path d="m0 0c1.948 0 3.527 1.579 3.527 3.527s-1.579 3.527-3.527 3.527-3.527-1.579-3.527-3.527 1.579-3.527 3.527-3.527" fill="#B22222"/></g><g transform="matrix(.35278 0 0 -.35278 150.4 -17.366)"><path d="m0 0c1.555 0 2.816 1.261 2.816 2.816s-1.261 2.816-2.816 2.816-2.816-1.261-2.816-2.816 1.261-2.816 2.816-2.816" fill="#B22222"/></g><g transform="matrix(.35278 0 0 -.35278 154.01 -17.627)"><path d="m0 0c1.147 0 2.077 0.929 2.077 2.076s-0.93 2.076-2.077 2.076-2.076-0.929-2.076-2.076 0.929-2.076 2.076-2.076" fill="#B22222"/></g><g transform="matrix(.35278 0 0 -.35278 157.63 -17.958)"><path d="m0 0c0.629 0 1.138 0.51 1.138 1.138s-0.509 1.138-1.138 1.138c-0.628 0-1.138-0.51-1.138-1.138s0.51-1.138 1.138-1.138" fill="#B22222"/></g><g transform="matrix(.35278 0 0 -.35278 161.25 -18.309)"><path d="m0 0c0.079 0 0.142 0.064 0.142 0.142 0 0.079-0.063 0.142-0.142 0.142-0.078 0-0.142-0.063-0.142-0.142 0-0.078 0.064-0.142 0.142-0.142" fill="#B22222"/></g><g transform="matrix(.35278 0 0 -.35278 78.024 -14.399)"><path d="m0 0c0.534 0 0.967 0.433 0.967 0.967s-0.433 0.967-0.967 0.967-0.967-0.433-0.967-0.967 0.433-0.967 0.967-0.967" fill="#B22222"/></g><g transform="matrix(.35278 0 0 -.35278 81.643 -14.038)"><path d="m0 0c1.1 0 1.991 0.891 1.991 1.991s-0.891 1.991-1.991 1.991c-1.099 0-1.991-0.891-1.991-1.991s0.892-1.991 1.991-1.991" fill="#B22222"/></g><g transform="matrix(.35278 0 0 -.35278 85.261 -13.727)"><path d="m0 0c1.587 0 2.873 1.286 2.873 2.873 0 1.586-1.286 2.872-2.873 2.872s-2.872-1.286-2.872-2.872c0-1.587 1.285-2.873 2.872-2.873" fill="#B22222"/></g><g transform="matrix(.35278 0 0 -.35278 88.88 -13.476)"><path d="m0 0c1.98 0 3.584 1.605 3.584 3.584s-1.604 3.584-3.584 3.584c-1.979 0-3.584-1.605-3.584-3.584s1.605-3.584 3.584-3.584" fill="#B22222"/></g><g transform="matrix(.35278 0 0 -.35278 92.498 -13.255)"><path d="m0 0c2.325 0 4.21 1.885 4.21 4.21 0 2.324-1.885 4.209-4.21 4.209s-4.209-1.885-4.209-4.209c0-2.325 1.884-4.21 4.209-4.21" fill="#B22222"/></g><g transform="matrix(.35278 0 0 -.35278 96.117 -13.095)"><path d="m0 0c2.576 0 4.665 2.088 4.665 4.665 0 2.576-2.089 4.664-4.665 4.664s-4.665-2.088-4.665-4.664c0-2.577 2.089-4.665 4.665-4.665" fill="#B22222"/></g><g transform="matrix(.35278 0 0 -.35278 143.16 -13.105)"><path d="m0 0c2.561 0 4.636 2.076 4.636 4.636 0 2.561-2.075 4.637-4.636 4.637-2.56 0-4.636-2.076-4.636-4.637 0-2.56 2.076-4.636 4.636-4.636" fill="#B22222"/></g><g transform="matrix(.35278 0 0 -.35278 146.78 -13.296)"><path d="m0 0c2.262 0 4.096 1.834 4.096 4.096s-1.834 4.096-4.096 4.096-4.096-1.834-4.096-4.096 1.834-4.096 4.096-4.096" fill="#B22222"/></g><g transform="matrix(.35278 0 0 -.35278 150.4 -13.516)"><path d="m0 0c1.916 0 3.47 1.554 3.47 3.47s-1.554 3.47-3.47 3.47-3.47-1.554-3.47-3.47 1.554-3.47 3.47-3.47" fill="#B22222"/></g><g transform="matrix(.35278 0 0 -.35278 154.01 -13.777)"><path d="m0 0c1.508 0 2.731 1.223 2.731 2.731s-1.223 2.73-2.731 2.73-2.73-1.222-2.73-2.73 1.222-2.731 2.73-2.731" fill="#B22222"/></g><g transform="matrix(.35278 0 0 -.35278 157.63 -14.088)"><path d="m0 0c1.021 0 1.849 0.828 1.849 1.849s-0.828 1.849-1.849 1.849-1.849-0.828-1.849-1.849 0.828-1.849 1.849-1.849" fill="#B22222"/></g><g transform="matrix(.35278 0 0 -.35278 161.25 -14.449)"><path d="m0 0c0.456 0 0.825 0.369 0.825 0.825s-0.369 0.825-0.825 0.825c-0.455 0-0.825-0.369-0.825-0.825s0.37-0.825 0.825-0.825" fill="#B22222"/></g><g transform="matrix(.35278 0 0 -.35278 74.406 -10.911)"><path d="m0 0c0.33 0 0.597 0.267 0.597 0.597s-0.267 0.598-0.597 0.598-0.597-0.268-0.597-0.598 0.267-0.597 0.597-0.597" fill="#B22222"/></g><g transform="matrix(.35278 0 0 -.35278 78.024 -10.54)"><path d="m0 0c0.911 0 1.65 0.739 1.65 1.65s-0.739 1.649-1.65 1.649-1.65-0.738-1.65-1.649 0.739-1.65 1.65-1.65" fill="#B22222"/></g><g transform="matrix(.35278 0 0 -.35278 81.643 -10.199)"><path d="m0 0c1.445 0 2.617 1.172 2.617 2.617s-1.172 2.617-2.617 2.617-2.617-1.172-2.617-2.617 1.172-2.617 2.617-2.617" fill="#B22222"/></g><g transform="matrix(.35278 0 0 -.35278 85.261 -9.9179)"><path d="m0 0c1.885 0 3.413 1.528 3.413 3.413s-1.528 3.414-3.413 3.414-3.413-1.529-3.413-3.414 1.528-3.413 3.413-3.413" fill="#B22222"/></g><g transform="matrix(.35278 0 0 -.35278 88.88 -9.657)"><path d="m0 0c2.294 0 4.153 1.859 4.153 4.152 0 2.294-1.859 4.153-4.153 4.153-2.293 0-4.152-1.859-4.152-4.153 0-2.293 1.859-4.152 4.152-4.152" fill="#B22222"/></g><g transform="matrix(.35278 0 0 -.35278 92.498 -9.4764)"><path d="m0 0c2.576 0 4.665 2.089 4.665 4.665s-2.089 4.664-4.665 4.664-4.664-2.088-4.664-4.664 2.088-4.665 4.664-4.665" fill="#B22222"/></g><g transform="matrix(.35278 0 0 -.35278 146.78 -9.5065)"><path d="m0 0c2.529 0 4.58 2.05 4.58 4.579 0 2.53-2.051 4.58-4.58 4.58s-4.579-2.05-4.579-4.58c0-2.529 2.05-4.579 4.579-4.579" fill="#B22222"/></g><g transform="matrix(.35278 0 0 -.35278 150.4 -9.6872)"><path d="m0 0c2.247 0 4.067 1.821 4.067 4.067 0 2.247-1.82 4.068-4.067 4.068-2.246 0-4.067-1.821-4.067-4.068 0-2.246 1.821-4.067 4.067-4.067" fill="#B22222"/></g><g transform="matrix(.35278 0 0 -.35278 154.01 -9.9581)"><path d="m0 0c1.822 0 3.299 1.477 3.299 3.299 0 1.823-1.477 3.3-3.299 3.3s-3.299-1.477-3.299-3.3c0-1.822 1.477-3.299 3.299-3.299" fill="#B22222"/></g><g transform="matrix(.35278 0 0 -.35278 157.63 -10.249)"><path d="m0 0c1.367 0 2.475 1.108 2.475 2.475 0 1.366-1.108 2.474-2.475 2.474-1.366 0-2.474-1.108-2.474-2.474 0-1.367 1.108-2.475 2.474-2.475" fill="#B22222"/></g><g transform="matrix(.35278 0 0 -.35278 161.25 -10.6)"><path d="m0 0c0.817 0 1.479 0.662 1.479 1.479s-0.662 1.479-1.479 1.479-1.479-0.662-1.479-1.479 0.662-1.479 1.479-1.479" fill="#B22222"/></g><g transform="matrix(.35278 0 0 -.35278 164.87 -10.992)"><path d="m0 0c0.204 0 0.37 0.166 0.37 0.37s-0.166 0.37-0.37 0.37-0.37-0.166-0.37-0.37 0.166-0.37 0.37-0.37" fill="#B22222"/></g><g transform="matrix(.35278 0 0 -.35278 74.406 -7.1321)"><path d="m0 0c0.581 0 1.052 0.471 1.052 1.052 0 0.582-0.471 1.053-1.052 1.053s-1.052-0.471-1.052-1.053c0-0.581 0.471-1.052 1.052-1.052" fill="#B22222"/></g><g transform="matrix(.35278 0 0 -.35278 78.024 -6.751)"><path d="m0 0c1.178 0 2.133 0.955 2.133 2.133s-0.955 2.133-2.133 2.133-2.133-0.955-2.133-2.133 0.955-2.133 2.133-2.133" fill="#B22222"/></g><g transform="matrix(.35278 0 0 -.35278 81.643 -6.4298)"><path d="m0 0c1.681 0 3.044 1.363 3.044 3.043 0 1.681-1.363 3.044-3.044 3.044s-3.043-1.363-3.043-3.044c0-1.68 1.362-3.043 3.043-3.043" fill="#B22222"/></g><g transform="matrix(.35278 0 0 -.35278 85.261 -6.1087)"><path d="m0 0c2.184 0 3.954 1.77 3.954 3.953 0 2.184-1.77 3.954-3.954 3.954-2.183 0-3.953-1.77-3.953-3.954 0-2.183 1.77-3.953 3.953-3.953" fill="#B22222"/></g><g transform="matrix(.35278 0 0 -.35278 88.88 -5.898)"><path d="m0 0c2.514 0 4.551 2.038 4.551 4.551 0 2.514-2.037 4.551-4.551 4.551-2.513 0-4.551-2.037-4.551-4.551 0-2.513 2.038-4.551 4.551-4.551" fill="#B22222"/></g><g transform="matrix(.35278 0 0 -.35278 150.4 -5.908)"><path d="m0 0c2.498 0 4.523 2.025 4.523 4.522 0 2.498-2.025 4.523-4.523 4.523s-4.522-2.025-4.522-4.523c0-2.497 2.024-4.522 4.522-4.522" fill="#B22222"/></g><g transform="matrix(.35278 0 0 -.35278 154.01 -6.1588)"><path d="m0 0c2.105 0 3.812 1.706 3.812 3.811 0 2.106-1.707 3.812-3.812 3.812s-3.811-1.706-3.811-3.812c0-2.105 1.706-3.811 3.811-3.811" fill="#B22222"/></g><g transform="matrix(.35278 0 0 -.35278 157.63 -6.4499)"><path d="m0 0c1.65 0 2.987 1.337 2.987 2.986 0 1.65-1.337 2.987-2.987 2.987-1.649 0-2.986-1.337-2.986-2.987 0-1.649 1.337-2.986 2.986-2.986" fill="#B22222"/></g><g transform="matrix(.35278 0 0 -.35278 161.25 -6.8011)"><path d="m0 0c1.1 0 1.991 0.891 1.991 1.991s-0.891 1.991-1.991 1.991c-1.099 0-1.991-0.891-1.991-1.991s0.892-1.991 1.991-1.991" fill="#B22222"/></g><g transform="matrix(.35278 0 0 -.35278 164.87 -7.1824)"><path d="m0 0c0.503 0 0.91 0.408 0.91 0.91 0 0.503-0.407 0.91-0.91 0.91-0.502 0-0.91-0.407-0.91-0.91 0-0.502 0.408-0.91 0.91-0.91" fill="#B22222"/></g><g transform="matrix(.35278 0 0 -.35278 70.787 -3.7544)"><path d="m0 0c0.204 0 0.37 0.165 0.37 0.37 0 0.204-0.166 0.37-0.37 0.37s-0.37-0.166-0.37-0.37c0-0.205 0.166-0.37 0.37-0.37" fill="#B22222"/></g><g transform="matrix(.35278 0 0 -.35278 74.406 -3.3331)"><path d="m0 0c0.864 0 1.565 0.7 1.565 1.564s-0.701 1.564-1.565 1.564-1.564-0.7-1.564-1.564 0.7-1.564 1.564-1.564" fill="#B22222"/></g><g transform="matrix(.35278 0 0 -.35278 78.024 -2.9618)"><path d="m0 0c1.445 0 2.617 1.172 2.617 2.617s-1.172 2.616-2.617 2.616-2.617-1.171-2.617-2.616 1.172-2.617 2.617-2.617" fill="#B22222"/></g><g transform="matrix(.35278 0 0 -.35278 81.643 -2.6406)"><path d="m0 0c1.948 0 3.527 1.579 3.527 3.527s-1.579 3.527-3.527 3.527-3.527-1.579-3.527-3.527 1.579-3.527 3.527-3.527" fill="#B22222"/></g><g transform="matrix(.35278 0 0 -.35278 85.261 -2.3697)"><path d="m0 0c2.372 0 4.295 1.923 4.295 4.295s-1.923 4.295-4.295 4.295-4.295-1.923-4.295-4.295 1.923-4.295 4.295-4.295" fill="#B22222"/></g><g transform="matrix(.35278 0 0 -.35278 150.4 -2.1991)"><path d="m0 0c2.639 0 4.779 2.139 4.779 4.778 0 2.64-2.14 4.779-4.779 4.779s-4.779-2.139-4.779-4.779c0-2.639 2.14-4.778 4.779-4.778" fill="#B22222"/></g><g transform="matrix(.35278 0 0 -.35278 154.01 -2.3999)"><path d="m0 0c2.325 0 4.21 1.885 4.21 4.209 0 2.325-1.885 4.21-4.21 4.21s-4.209-1.885-4.209-4.21c0-2.324 1.884-4.209 4.209-4.209" fill="#B22222"/></g><g transform="matrix(.35278 0 0 -.35278 157.63 -2.7009)"><path d="m0 0c1.854 0 3.356 1.503 3.356 3.356 0 1.854-1.502 3.356-3.356 3.356-1.853 0-3.356-1.502-3.356-3.356 0-1.853 1.503-3.356 3.356-3.356" fill="#B22222"/></g><g transform="matrix(.35278 0 0 -.35278 161.25 -3.0119)"><path d="m0 0c1.367 0 2.475 1.108 2.475 2.475 0 1.366-1.108 2.474-2.475 2.474s-2.474-1.108-2.474-2.474c0-1.367 1.107-2.475 2.474-2.475" fill="#B22222"/></g><g transform="matrix(.35278 0 0 -.35278 164.87 -3.4133)"><path d="m0 0c0.739 0 1.337 0.599 1.337 1.337s-0.598 1.337-1.337 1.337c-0.738 0-1.337-0.599-1.337-1.337s0.599-1.337 1.337-1.337" fill="#B22222"/></g><g transform="matrix(.35278 0 0 -.35278 168.49 -3.8047)"><path d="m0 0c0.126 0 0.228 0.102 0.228 0.227 0 0.126-0.102 0.228-0.228 0.228s-0.227-0.102-0.227-0.228c0-0.125 0.101-0.227 0.227-0.227" fill="#B22222"/></g><g transform="matrix(.35278 0 0 -.35278 70.787 -.025505)"><path d="m0 0c0.377 0 0.683 0.306 0.683 0.683s-0.306 0.682-0.683 0.682-0.682-0.305-0.682-0.682 0.305-0.683 0.682-0.683" fill="#B22222"/></g><g transform="matrix(.35278 0 0 -.35278 74.406 .38576)"><path d="m0 0c1.021 0 1.849 0.827 1.849 1.849 0 1.021-0.828 1.848-1.849 1.848s-1.849-0.827-1.849-1.848c0-1.022 0.828-1.849 1.849-1.849" fill="#B22222"/></g><g transform="matrix(.35278 0 0 -.35278 78.024 .76722)"><path d="m0 0c1.618 0 2.93 1.312 2.93 2.93s-1.312 2.929-2.93 2.929-2.93-1.311-2.93-2.929 1.312-2.93 2.93-2.93" fill="#B22222"/></g><g transform="matrix(.35278 0 0 -.35278 81.643 1.0882)"><path d="m0 0c2.121 0 3.84 1.719 3.84 3.84s-1.719 3.84-3.84 3.84c-2.12 0-3.839-1.719-3.839-3.84s1.719-3.84 3.839-3.84" fill="#B22222"/></g><g transform="matrix(.35278 0 0 -.35278 85.261 1.3392)"><path d="m0 0c2.514 0 4.551 2.038 4.551 4.551s-2.037 4.551-4.551 4.551c-2.513 0-4.551-2.038-4.551-4.551s2.038-4.551 4.551-4.551" fill="#B22222"/></g><g transform="matrix(.35278 0 0 -.35278 154.01 1.309)"><path d="m0 0c2.466 0 4.466 1.999 4.466 4.465 0 2.467-2 4.466-4.466 4.466s-4.465-1.999-4.465-4.466c0-2.466 1.999-4.465 4.465-4.465" fill="#B22222"/></g><g transform="matrix(.35278 0 0 -.35278 157.63 1.0381)"><path d="m0 0c2.042 0 3.698 1.656 3.698 3.698s-1.656 3.697-3.698 3.697-3.697-1.655-3.697-3.697 1.655-3.698 3.697-3.698" fill="#B22222"/></g><g transform="matrix(.35278 0 0 -.35278 161.25 .72708)"><path d="m0 0c1.556 0 2.816 1.261 2.816 2.816s-1.26 2.816-2.816 2.816c-1.555 0-2.816-1.261-2.816-2.816s1.261-2.816 2.816-2.816" fill="#B22222"/></g><g transform="matrix(.35278 0 0 -.35278 164.87 .36576)"><path d="m0 0c0.99 0 1.792 0.802 1.792 1.792 0 0.989-0.802 1.792-1.792 1.792s-1.792-0.803-1.792-1.792c0-0.99 0.802-1.792 1.792-1.792" fill="#B22222"/></g><g transform="matrix(.35278 0 0 -.35278 168.49 -.0756)"><path d="m0 0c0.298 0 0.541 0.242 0.541 0.541 0 0.298-0.243 0.54-0.541 0.54s-0.54-0.242-0.54-0.54c0-0.299 0.242-0.541 0.54-0.541" fill="#B22222"/></g><g transform="matrix(.35278 0 0 -.35278 70.787 3.6933)"><path d="m0 0c0.534 0 0.967 0.433 0.967 0.967s-0.433 0.967-0.967 0.967-0.967-0.433-0.967-0.967 0.433-0.967 0.967-0.967" fill="#B22222"/></g><g transform="matrix(.35278 0 0 -.35278 74.406 4.1047)"><path d="m0 0c1.178 0 2.133 0.955 2.133 2.133 0 1.179-0.955 2.133-2.133 2.133s-2.133-0.954-2.133-2.133c0-1.178 0.955-2.133 2.133-2.133" fill="#B22222"/></g><g transform="matrix(.35278 0 0 -.35278 78.024 4.4759)"><path d="m0 0c1.759 0 3.186 1.426 3.186 3.185 0 1.76-1.427 3.186-3.186 3.186s-3.185-1.426-3.185-3.186c0-1.759 1.426-3.185 3.185-3.185" fill="#B22222"/></g><g transform="matrix(.35278 0 0 -.35278 81.643 4.7871)"><path d="m0 0c2.247 0 4.068 1.821 4.068 4.067 0 2.247-1.821 4.068-4.068 4.068-2.246 0-4.067-1.821-4.067-4.068 0-2.246 1.821-4.067 4.067-4.067" fill="#B22222"/></g><g transform="matrix(.35278 0 0 -.35278 85.261 5.0279)"><path d="m0 0c2.624 0 4.75 2.127 4.75 4.75s-2.126 4.75-4.75 4.75c-2.623 0-4.75-2.127-4.75-4.75s2.127-4.75 4.75-4.75" fill="#B22222"/></g><g transform="matrix(.35278 0 0 -.35278 154.01 4.9878)"><path d="m0 0c2.561 0 4.636 2.076 4.636 4.636 0 2.561-2.075 4.637-4.636 4.637-2.56 0-4.636-2.076-4.636-4.637 0-2.56 2.076-4.636 4.636-4.636" fill="#B22222"/></g><g transform="matrix(.35278 0 0 -.35278 157.63 4.7468)"><path d="m0 0c2.184 0 3.954 1.77 3.954 3.953 0 2.184-1.77 3.954-3.954 3.954-2.183 0-3.953-1.77-3.953-3.954 0-2.183 1.77-3.953 3.953-3.953" fill="#B22222"/></g><g transform="matrix(.35278 0 0 -.35278 161.25 4.4258)"><path d="m0 0c1.681 0 3.044 1.362 3.044 3.043s-1.363 3.044-3.044 3.044-3.043-1.363-3.043-3.044 1.362-3.043 3.043-3.043" fill="#B22222"/></g><g transform="matrix(.35278 0 0 -.35278 164.87 4.0545)"><path d="m0 0c1.1 0 1.991 0.891 1.991 1.991 0 1.099-0.891 1.991-1.991 1.991-1.099 0-1.991-0.892-1.991-1.991 0-1.1 0.892-1.991 1.991-1.991" fill="#B22222"/></g><g transform="matrix(.35278 0 0 -.35278 168.49 3.6132)"><path d="m0 0c0.408 0 0.739 0.331 0.739 0.74 0 0.408-0.331 0.739-0.739 0.739s-0.739-0.331-0.739-0.739c0-0.409 0.331-0.74 0.739-0.74" fill="#B22222"/></g><g transform="matrix(.35278 0 0 -.35278 70.787 7.3722)"><path d="m0 0c0.628 0 1.138 0.51 1.138 1.138s-0.51 1.138-1.138 1.138-1.138-0.51-1.138-1.138 0.51-1.138 1.138-1.138" fill="#B22222"/></g><g transform="matrix(.35278 0 0 -.35278 74.406 7.7935)"><path d="m0 0c1.288 0 2.333 1.044 2.333 2.332s-1.045 2.332-2.333 2.332-2.332-1.044-2.332-2.332 1.044-2.332 2.332-2.332" fill="#B22222"/></g><g transform="matrix(.35278 0 0 -.35278 78.024 8.1347)"><path d="m0 0c1.822 0 3.299 1.477 3.299 3.299 0 1.823-1.477 3.3-3.299 3.3s-3.299-1.477-3.299-3.3c0-1.822 1.477-3.299 3.299-3.299" fill="#B22222"/></g><g transform="matrix(.35278 0 0 -.35278 81.643 8.4558)"><path d="m0 0c2.325 0 4.21 1.885 4.21 4.21 0 2.324-1.885 4.209-4.21 4.209s-4.209-1.885-4.209-4.209c0-2.325 1.884-4.21 4.209-4.21" fill="#B22222"/></g><g transform="matrix(.35278 0 0 -.35278 154.01 8.6565)"><path d="m0 0c2.639 0 4.779 2.14 4.779 4.779 0 2.638-2.14 4.778-4.779 4.778s-4.778-2.14-4.778-4.778c0-2.639 2.139-4.779 4.778-4.779" fill="#B22222"/></g><g transform="matrix(.35278 0 0 -.35278 157.63 8.4056)"><path d="m0 0c2.247 0 4.068 1.821 4.068 4.068 0 2.245-1.821 4.067-4.068 4.067-2.246 0-4.067-1.822-4.067-4.067 0-2.247 1.821-4.068 4.067-4.068" fill="#B22222"/></g><g transform="matrix(.35278 0 0 -.35278 161.25 8.0945)"><path d="m0 0c1.759 0 3.186 1.426 3.186 3.186 0 1.759-1.427 3.185-3.186 3.185s-3.185-1.426-3.185-3.185c0-1.76 1.426-3.186 3.185-3.186" fill="#B22222"/></g><g transform="matrix(.35278 0 0 -.35278 164.87 7.7233)"><path d="m0 0c1.178 0 2.133 0.955 2.133 2.133 0 1.179-0.955 2.133-2.133 2.133s-2.133-0.954-2.133-2.133c0-1.178 0.955-2.133 2.133-2.133" fill="#B22222"/></g><g transform="matrix(.35278 0 0 -.35278 168.49 7.3119)"><path d="m0 0c0.534 0 0.967 0.433 0.967 0.967s-0.433 0.967-0.967 0.967-0.967-0.433-0.967-0.967 0.433-0.967 0.967-0.967" fill="#B22222"/></g><g transform="matrix(.35278 0 0 -.35278 70.787 10.138)"><path d="m0 0c-0.707 0-1.28-0.573-1.28-1.28s0.573-1.28 1.28-1.28 1.28 0.573 1.28 1.28-0.573 1.28-1.28 1.28" fill="#B22222"/></g><g transform="matrix(.35278 0 0 -.35278 74.406 9.7365)"><path d="m0 0c-1.335 0-2.418-1.082-2.418-2.418 0-1.335 1.083-2.417 2.418-2.417s2.418 1.082 2.418 2.417c0 1.336-1.083 2.418-2.418 2.418" fill="#B22222"/></g><g transform="matrix(.35278 0 0 -.35278 78.024 9.3852)"><path d="m0 0c-1.885 0-3.413-1.528-3.413-3.413s1.528-3.413 3.413-3.413 3.413 1.528 3.413 3.413-1.528 3.413-3.413 3.413" fill="#B22222"/></g><g transform="matrix(.35278 0 0 -.35278 81.643 9.0742)"><path d="m0 0c-2.372 0-4.295-1.923-4.295-4.295s1.923-4.295 4.295-4.295 4.295 1.923 4.295 4.295-1.923 4.295-4.295 4.295" fill="#B22222"/></g><g transform="matrix(.35278 0 0 -.35278 125.08 -20.264)"><path d="m0 0c2.661 0.03 4.81 2.191 4.81 4.859 0 2.686-2.177 4.863-4.864 4.863-2.686 0-4.863-2.177-4.863-4.863 0-2.668 2.149-4.829 4.81-4.859-0.975-0.01-1.88-0.286-2.662-0.748 2.326-0.329 4.623-0.745 6.888-1.248-0.974 1.204-2.451 1.98-4.119 1.996" fill="#B22222"/></g><g transform="matrix(.35278 0 0 -.35278 134.11 -18.359)"><path d="m0 0c0 2.828-2.292 5.12-5.12 5.12-2.568 0-4.674-1.897-5.043-4.362-0.37 2.56-2.552 4.533-5.214 4.533-1.806 0-3.387-0.911-4.336-2.295 6.365-1.547 12.467-3.764 18.226-6.577 0.917 0.917 1.487 2.178 1.487 3.581" fill="#B22222"/></g><g transform="matrix(.35278 0 0 -.35278 87.798 8.9948)"><path d="m0 0c-1.216-0.821-2.083-2.109-2.333-3.621-0.424 2.303-2.434 4.05-4.859 4.05-2.733 0-4.949-2.215-4.949-4.949 0-2.733 2.216-4.949 4.949-4.949 2.426 0 4.435 1.747 4.859 4.05 0.23-1.392 0.986-2.593 2.054-3.417-8e-3 0.497-0.019 0.994-0.019 1.493 0 2.472 0.103 4.921 0.298 7.343" fill="#B22222"/></g><g transform="matrix(.35278 0 0 -.35278 110.59 -20.235)"><path d="m0 0c-2.629 0-4.799-1.912-5.228-4.419-0.427 2.397-2.51 4.22-5.029 4.22-2.828 0-5.12-2.292-5.12-5.12 0-1.365 0.543-2.592 1.417-3.503 5.775 2.808 11.894 5.015 18.277 6.55-0.957 1.367-2.52 2.272-4.317 2.272" fill="#B22222"/></g><g transform="matrix(.35278 0 0 -.35278 86.975 13.891)"><path d="m0 0c-0.424 2.302-2.433 4.05-4.859 4.05-2.733 0-4.948-2.216-4.948-4.949s2.215-4.949 4.948-4.949c2.426 0 4.435 1.747 4.859 4.05 0.286-1.723 1.374-3.151 2.866-3.93-0.408 3.015-0.668 6.076-0.772 9.177-1.089-0.824-1.86-2.039-2.094-3.449" fill="#B22222"/></g><g transform="matrix(.35278 0 0 -.35278 149.02 23.953)"><path d="m0 0c-1.158-2.751-2.446-5.433-3.861-8.037 1.449 0.732 2.536 2.067 2.896 3.695 0.539-2.202 2.51-3.841 4.877-3.841 2.78 0 5.034 2.254 5.034 5.034 0 2.781-2.254 5.043-5.034 5.043-1.587 0-2.993-0.742-3.912-1.894" fill="#B22222"/></g><g transform="matrix(.35278 0 0 -.35278 146.76 30.546)"><path d="m0 0c-2.513-0.027-4.557-1.918-4.862-4.355-0.102 0.881-0.419 1.691-0.888 2.39-2.144-2.737-4.443-5.345-6.882-7.815 0.473-0.239 0.985-0.415 1.528-0.506-2.057-0.372-3.672-1.987-4.044-4.044-0.096 0.569-0.281 1.105-0.539 1.598-2.583-2.383-5.305-4.617-8.153-6.689 0.775-0.617 1.721-1.031 2.761-1.151-2.437-0.305-4.328-2.349-4.355-4.862-0.015 1.485-0.651 2.809-1.651 3.757-5.161-3.421-10.691-6.33-16.521-8.647 0.445-0.244 0.926-0.431 1.436-0.544-2.201-0.538-3.85-2.509-3.85-4.876 0-2.781 2.263-5.035 5.043-5.035 2.781 0 5.035 2.254 5.035 5.035 0 2.367-1.64 4.338-3.841 4.876 1.939 0.429 3.473 1.882 4.054 3.758 0.688-2.123 2.658-3.667 5.01-3.667 2.904 0 5.256 2.34 5.285 5.237 0.029-2.724 2.241-4.924 4.972-4.924 2.749 0 4.978 2.228 4.978 4.977 0 2.538-1.906 4.608-4.361 4.915 2.392 0.276 4.3 2.091 4.697 4.442 0.425-2.349 2.471-4.134 4.943-4.134 2.781 0 5.035 2.254 5.035 5.034 0 2.473-1.785 4.519-4.135 4.944 2.352 0.396 4.167 2.305 4.443 4.696 0.307-2.454 2.377-4.36 4.915-4.36 2.749 0 4.977 2.229 4.977 4.978 0 2.73-2.2 4.943-4.925 4.972 2.898 0.029 5.238 2.381 5.238 5.285 0 2.145-1.288 3.97-3.125 4.797-1.686-3.053-3.541-6-5.558-8.824 0.905-0.768 2.061-1.245 3.34-1.258" fill="#B22222"/></g><g transform="matrix(.35278 0 0 -.35278 114.33 -20.264)"><path d="m0 0c2.543 0.175 4.558 2.271 4.558 4.859 0 2.701-2.191 4.892-4.893 4.892-2.701 0-4.892-2.191-4.892-4.892 0-2.588 2.015-4.684 4.558-4.859-1.538-0.095-2.887-0.832-3.809-1.94 2.248 0.492 4.527 0.899 6.834 1.221-0.7 0.407-1.497 0.666-2.356 0.719" fill="#B22222"/></g><g transform="matrix(.35278 0 0 -.35278 89.197 1.5077)"><path d="m0 0c0.128 0.023 0.252 0.056 0.375 0.09 0.879 2.632 1.878 5.209 2.986 7.727-0.908 1.399-2.467 2.331-4.261 2.331-2.827 0-5.12-2.292-5.12-5.119 0-2.519 1.824-4.602 4.221-5.029-2.507-0.429-4.419-2.599-4.419-5.228 0-2.403 1.603-4.41 3.791-5.07-2.147-0.632-3.728-2.537-3.872-4.853-0.175 2.543-2.271 4.557-4.858 4.557-2.702 0-4.892-2.19-4.892-4.892s2.19-4.892 4.892-4.892c2.587 0 4.683 2.014 4.858 4.557 0.11-1.761 1.054-3.277 2.442-4.185 0.648 6.9 2.07 13.574 4.18 19.936-0.106 0.026-0.213 0.051-0.323 0.07" fill="#B22222"/></g><g transform="matrix(.35278 0 0 -.35278 89.147 23.284)"><path d="m0 0c0.686 0.099 1.327 0.33 1.901 0.663-2.4 6.229-4.129 12.791-5.101 19.597-1.736-0.883-2.935-2.658-2.956-4.736-0.029 2.662-2.19 4.811-4.859 4.811-2.685 0-4.863-2.177-4.863-4.863 0-2.687 2.178-4.864 4.863-4.864 2.669 0 4.83 2.15 4.859 4.811 0.024-2.462 1.699-4.509 3.967-5.135-2.221-0.628-3.858-2.648-3.858-5.07 0-2.662 1.973-4.844 4.533-5.214-2.466-0.368-4.363-2.475-4.363-5.043 0-2.828 2.292-5.12 5.12-5.12 2.327 0 4.269 1.562 4.891 3.688 0.387-1.45 1.343-2.65 2.612-3.377-1.502 2.772-2.858 5.633-4.068 8.569-0.729 0.668-1.649 1.129-2.678 1.283" fill="#B22222"/></g><g transform="matrix(.35278 0 0 -.35278 129.9 41.788)"><path d="m0 0c-2.752-0.939-5.564-1.747-8.428-2.42-0.026-0.089-0.056-0.175-0.077-0.265-0.018 0.078-0.047 0.152-0.069 0.229-6.628-1.547-13.535-2.367-20.634-2.367-7.024 0-13.861 0.801-20.425 2.316-0.016-0.06-0.036-0.118-0.05-0.178-0.016 0.07-0.043 0.136-0.062 0.206-2.885 0.669-5.718 1.476-8.49 2.415-0.991-0.906-1.634-2.181-1.688-3.621-0.087 2.259-1.637 4.124-3.735 4.698 0.427 0.106 0.827 0.272 1.208 0.47-5.844 2.311-11.386 5.217-16.559 8.637-0.877-0.886-1.444-2.078-1.528-3.406-0.155 2.302-1.848 4.175-4.073 4.58 0.893 0.149 1.706 0.52 2.393 1.047-2.851 2.066-5.578 4.293-8.165 6.671-0.191-0.387-0.341-0.797-0.434-1.231-0.432 1.873-1.892 3.341-3.757 3.791 0.394 0.088 0.769 0.222 1.124 0.393-2.452 2.474-4.765 5.087-6.92 7.831-0.35-0.545-0.614-1.149-0.748-1.806-0.458 2.053-2.169 3.613-4.29 3.875 1.001 0.117 1.914 0.509 2.667 1.095-2.055 2.865-3.945 5.855-5.659 8.956-1.758-0.874-2.972-2.67-2.972-4.766 0-2.741 2.071-4.975 4.73-5.285-2.486-0.307-4.418-2.403-4.418-4.972 0-2.78 2.255-5.034 5.035-5.034 2.403 0 4.405 1.686 4.907 3.937 0.428-2.102 2.068-3.757 4.157-4.224-2.233-0.539-3.898-2.537-3.898-4.936 0-2.812 2.279-5.091 5.091-5.091 2.417 0 4.43 1.687 4.951 3.945 0.464-2.16 2.213-3.829 4.407-4.196-2.334-0.425-4.106-2.459-4.106-4.915 0-2.765 2.241-5.006 5.005-5.006 2.65 0 4.797 2.065 4.973 4.67 0.176-2.778 2.462-4.983 5.285-4.983 2.332 0 4.293 1.511 5.01 3.6 0.59-1.799 2.057-3.186 3.91-3.647-2.159-0.59-3.754-2.546-3.754-4.892 0-2.812 2.279-5.091 5.091-5.091 2.746 0 4.968 2.178 5.072 4.897 0.104-2.782 2.377-5.011 5.185-5.011 2.463 0 4.514 1.715 5.055 4.012 0.544-2.377 2.661-4.154 5.203-4.154 2.418 0 4.438 1.616 5.099 3.819 0.658-2.218 2.679-3.847 5.105-3.871-2.661-0.029-4.811-2.19-4.811-4.858 0-2.686 2.178-4.864 4.864-4.864s4.864 2.178 4.864 4.864c0 2.668-2.15 4.829-4.811 4.858 2.391 0.024 4.388 1.606 5.076 3.776 0.692-2.186 2.713-3.79 5.128-3.79 2.451 0 4.496 1.65 5.159 3.885 0.66-2.203 2.68-3.819 5.099-3.819 2.541 0 4.659 1.777 5.203 4.154 0.541-2.297 2.592-4.012 5.054-4.012 2.875 0 5.214 2.331 5.214 5.205 0 1.549-0.685 2.931-1.763 3.879" fill="#B22222"/></g><g transform="matrix(.35278 0 0 -.35278 121.76 -20.264)"><path d="m0 0c2.302 0.424 4.049 2.434 4.049 4.859 0 2.733-2.215 4.949-4.949 4.949-2.733 0-4.949-2.216-4.949-4.949 0-2.332 1.616-4.274 3.787-4.798 0.812-0.037 1.622-0.082 2.429-0.14-0.121 0.029-0.242 0.058-0.367 0.079" fill="#B22222"/></g><g transform="matrix(.35278 0 0 -.35278 119.57 -21.978)"><path d="m0 0c0 2.733-2.216 4.949-4.949 4.949s-4.949-2.216-4.949-4.949c0-2.425 1.747-4.434 4.049-4.859-0.095-0.016-0.188-0.038-0.282-0.059 0.794 0.054 1.59 0.097 2.389 0.13 2.148 0.54 3.742 2.473 3.742 4.788" fill="#B22222"/></g><g transform="matrix(.35278 0 0 -.35278 94.235 -7.9412)"><path d="m0 0c-0.557 2.209-2.54 3.851-4.921 3.851-2.812 0-5.092-2.28-5.092-5.092 0-2.457 1.742-4.508 4.059-4.985-2.457-0.48-4.312-2.628-4.338-5.219-0.029 2.677-2.203 4.839-4.887 4.839-2.702 0-4.892-2.19-4.892-4.892s2.19-4.892 4.892-4.892c2.684 0 4.858 2.162 4.887 4.839 0.013-1.296 0.487-2.475 1.264-3.393 3.418 6.832 7.672 13.174 12.634 18.885-1.792-0.599-3.174-2.078-3.606-3.941" fill="#B22222"/></g><g transform="matrix(.35278 0 0 -.35278 97.814 -11.722)"><path d="m0 0c-0.701 1.989-2.581 3.42-4.81 3.42-2.828 0-5.12-2.292-5.12-5.12 0-2.288 1.511-4.205 3.582-4.859 2.005 2.292 4.124 4.48 6.348 6.559" fill="#B22222"/></g><g transform="matrix(.35278 0 0 -.35278 103.37 -16.635)"><path d="m0 0c2.677 0.029 4.84 2.203 4.84 4.887 0 2.702-2.191 4.892-4.893 4.892s-4.892-2.19-4.892-4.892c0-2.684 2.162-4.858 4.84-4.887-2.592-0.026-4.74-1.881-5.219-4.338-0.478 2.317-2.528 4.059-4.986 4.059-2.812 0-5.091-2.28-5.091-5.091 0-2.36 1.612-4.327 3.79-4.904 4.385 3.627 9.12 6.846 14.143 9.604-0.751 0.417-1.612 0.661-2.532 0.67" fill="#B22222"/></g><g transform="matrix(.35278 0 0 -.35278 152.28 6.9707)"><path d="m 0,0 c 0,2.506 -1.729,4.597 -4.056,5.176 0.654,-3.19 1.134,-6.442 1.443,-9.744 C -1.051,-3.64 0,-1.95 0,0" fill="#B22222"/></g><g transform="matrix(.35278 0 0 -.35278 139.93 -13.01)"><path d="m0 0c2.252 0.502 3.938 2.504 3.938 4.907 0 2.78-2.254 5.034-5.035 5.034-2.568 0-4.664-1.931-4.972-4.416-0.309 2.658-2.543 4.729-5.285 4.729-0.976 0-1.882-0.27-2.665-0.729 6.566-3.621 12.631-8.034 18.071-13.11-0.62 1.81-2.147 3.197-4.052 3.585" fill="#B22222"/></g><g transform="matrix(.35278 0 0 -.35278 146.66 -5.7494)"><path d="m0 0c-0.243-0.016-0.48-0.051-0.713-0.099 1.817-2.809 3.48-5.728 4.982-8.74 0.858 0.937 1.386 2.18 1.386 3.554 0 2.823-2.206 5.109-4.984 5.285 2.605 0.175 4.671 2.322 4.671 4.972 0 2.765-2.242 5.006-5.007 5.006-2.456 0-4.49-1.773-4.915-4.106-0.348 2.077-1.869 3.742-3.863 4.308 2.75-3.162 5.281-6.519 7.576-10.045 0.281-0.068 0.57-0.115 0.867-0.135" fill="#B22222"/></g><g transform="matrix(.35278 0 0 -.35278 150.33 1.5228)"><path d="m0 0c-0.417-0.016-0.818-0.086-1.202-0.194 1.075-3.264 1.974-6.606 2.677-10.022 2.252 0.573 3.924 2.6 3.924 5.03 0 2.808-2.228 5.082-5.011 5.186 2.72 0.104 4.897 2.326 4.897 5.072 0 2.812-2.279 5.091-5.091 5.091-1.88 0-3.506-1.026-4.383-2.543 1.052-2.409 2.004-4.87 2.847-7.383 0.426-0.135 0.875-0.219 1.342-0.237" fill="#B22222"/></g><g transform="matrix(.35278 0 0 -.35278 150.4 23.284)"><path d="m0 0c2.875 0 5.205 2.34 5.205 5.214 0 2.462-1.715 4.513-4.012 5.055 2.377 0.543 4.155 2.661 4.155 5.203 0 2.156-1.286 3.992-3.126 4.834-0.962-6.757-2.67-13.272-5.039-19.461 0.81-0.532 1.775-0.845 2.817-0.845" fill="#B22222"/></g><g transform="matrix(.35278 0 0 -.35278 151.49 12.137)"><path d="m0 0c1.366 0.963 2.265 2.537 2.283 4.335 0.029-2.661 2.19-4.811 4.858-4.811 2.687 0 4.864 2.178 4.864 4.864s-2.177 4.863-4.864 4.863c-2.668 0-4.829-2.149-4.858-4.81-0.019 1.918-1.043 3.579-2.566 4.518 0.198-2.439 0.303-4.905 0.303-7.394 0-0.523-0.011-1.044-0.02-1.565" fill="#B22222"/></g><g transform="matrix(.35278 0 0 -.35278 152.3 14.208)"><path d="M 0,0 C 0,1.836 -0.928,3.442 -2.333,4.412 -2.436,1.278 -2.699,-1.816 -3.113,-4.862 -1.28,-4 0,-2.158 0,0" fill="#B22222"/></g><g transform="matrix(.35278 0 0 -.35278 143.63 -9.3947)"><path d="m0 0c2.157 0.59 3.749 2.552 3.749 4.896 0 2.812-2.28 5.092-5.092 5.092-2.28 0-4.196-1.506-4.843-3.573 2.165-2.036 4.23-4.176 6.186-6.415" fill="#B22222"/></g><g transform="matrix(.35278 0 0 -.35278 157.63 9.1244)"><path d="m0 0c-2.293 0-4.152-1.859-4.152-4.153 0-2.293 1.859-4.152 4.152-4.152 2.294 0 4.153 1.859 4.153 4.152 0 2.294-1.859 4.153-4.153 4.153" fill="#B22222"/></g><g transform="matrix(.35278 0 0 -.35278 161.25 9.4454)"><path d="m0 0c-1.791 0-3.242-1.452-3.242-3.243 0-1.79 1.451-3.242 3.242-3.242s3.243 1.452 3.243 3.242c0 1.791-1.452 3.243-3.243 3.243" fill="#B22222"/></g><g transform="matrix(.35278 0 0 -.35278 164.87 9.7865)"><path d="m0 0c-1.256 0-2.275-1.019-2.275-2.276 0-1.256 1.019-2.275 2.275-2.275 1.257 0 2.276 1.019 2.276 2.275 0 1.257-1.019 2.276-2.276 2.276" fill="#B22222"/></g><g transform="matrix(.35278 0 0 -.35278 168.49 10.96)"><path d="m0 0c0.581 0 1.052 0.471 1.052 1.052 0 0.582-0.471 1.052-1.052 1.052s-1.052-0.47-1.052-1.052c0-0.581 0.471-1.052 1.052-1.052" fill="#B22222"/></g><g transform="matrix(.35278 0 0 -.35278 70.787 13.786)"><path d="m0 0c-0.66 0-1.194-0.535-1.194-1.195 0-0.659 0.534-1.194 1.194-1.194s1.195 0.535 1.195 1.194c0 0.66-0.535 1.195-1.195 1.195" fill="#B22222"/></g><g transform="matrix(.35278 0 0 -.35278 74.406 13.355)"><path d="m0 0c-1.335 0-2.418-1.082-2.418-2.418 0-1.335 1.083-2.417 2.418-2.417s2.418 1.082 2.418 2.417c0 1.336-1.083 2.418-2.418 2.418" fill="#B22222"/></g><g transform="matrix(.35278 0 0 -.35278 78.024 13.004)"><path d="m0 0c-1.885 0-3.413-1.528-3.413-3.413s1.528-3.413 3.413-3.413 3.413 1.528 3.413 3.413-1.528 3.413-3.413 3.413" fill="#B22222"/></g><g transform="matrix(.35278 0 0 -.35278 81.643 12.713)"><path d="m0 0c-2.34 0-4.238-1.897-4.238-4.238s1.898-4.238 4.238-4.238c2.341 0 4.238 1.897 4.238 4.238s-1.897 4.238-4.238 4.238" fill="#B22222"/></g><g transform="matrix(.35278 0 0 -.35278 154.01 15.914)"><path d="m0 0c2.671 0 4.835 2.165 4.835 4.835 0 2.671-2.164 4.836-4.835 4.836-2.67 0-4.844-2.165-4.844-4.836 0-2.67 2.174-4.835 4.844-4.835" fill="#B22222"/></g><g transform="matrix(.35278 0 0 -.35278 157.63 12.743)"><path d="m0 0c-2.293 0-4.152-1.859-4.152-4.153 0-2.293 1.859-4.153 4.152-4.153 2.294 0 4.153 1.86 4.153 4.153 0 2.294-1.859 4.153-4.153 4.153" fill="#B22222"/></g><g transform="matrix(.35278 0 0 -.35278 161.25 13.064)"><path d="m0 0c-1.791 0-3.242-1.452-3.242-3.243s1.451-3.242 3.242-3.242 3.243 1.451 3.243 3.242-1.452 3.243-3.243 3.243" fill="#B22222"/></g><g transform="matrix(.35278 0 0 -.35278 164.87 13.435)"><path d="m0 0c-1.209 0-2.19-0.98-2.19-2.19s0.981-2.19 2.19-2.19c1.21 0 2.19 0.98 2.19 2.19s-0.98 2.19-2.19 2.19" fill="#B22222"/></g><g transform="matrix(.35278 0 0 -.35278 168.49 13.837)"><path d="m0 0c-0.581 0-1.052-0.471-1.052-1.052s0.471-1.053 1.052-1.053 1.052 0.472 1.052 1.053-0.471 1.052-1.052 1.052" fill="#B22222"/></g><g transform="matrix(.35278 0 0 -.35278 70.787 17.425)"><path d="m0 0c-0.628 0-1.138-0.509-1.138-1.138 0-0.628 0.51-1.138 1.138-1.138s1.138 0.51 1.138 1.138c0 0.629-0.51 1.138-1.138 1.138" fill="#B22222"/></g><g transform="matrix(.35278 0 0 -.35278 74.406 17.004)"><path d="m0 0c-1.288 0-2.332-1.044-2.332-2.332s1.044-2.333 2.332-2.333 2.333 1.045 2.333 2.333-1.045 2.332-2.333 2.332" fill="#B22222"/></g><g transform="matrix(.35278 0 0 -.35278 78.024 16.662)"><path d="m0 0c-1.822 0-3.299-1.477-3.299-3.3 0-1.822 1.477-3.299 3.299-3.299s3.299 1.477 3.299 3.299c0 1.823-1.477 3.3-3.299 3.3" fill="#B22222"/></g><g transform="matrix(.35278 0 0 -.35278 81.643 16.341)"><path d="m0 0c-2.325 0-4.209-1.885-4.209-4.209 0-2.325 1.884-4.21 4.209-4.21s4.21 1.885 4.21 4.21c0 2.324-1.885 4.209-4.21 4.209" fill="#B22222"/></g><g transform="matrix(.35278 0 0 -.35278 154.01 16.151)"><path d="m0 0c-2.623 0-4.75-2.127-4.75-4.75 0-2.624 2.127-4.75 4.75-4.75 2.624 0 4.75 2.126 4.75 4.75 0 2.623-2.126 4.75-4.75 4.75" fill="#B22222"/></g><g transform="matrix(.35278 0 0 -.35278 157.63 16.392)"><path d="m0 0c-2.246 0-4.067-1.821-4.067-4.067s1.821-4.068 4.067-4.068c2.247 0 4.068 1.822 4.068 4.068s-1.821 4.067-4.068 4.067" fill="#B22222"/></g><g transform="matrix(.35278 0 0 -.35278 161.25 16.723)"><path d="m0 0c-1.728 0-3.129-1.401-3.129-3.129 0-1.727 1.401-3.128 3.129-3.128s3.129 1.401 3.129 3.128c0 1.728-1.401 3.129-3.129 3.129" fill="#B22222"/></g><g transform="matrix(.35278 0 0 -.35278 164.87 17.074)"><path d="m0 0c-1.178 0-2.133-0.955-2.133-2.133s0.955-2.133 2.133-2.133 2.133 0.955 2.133 2.133-0.955 2.133-2.133 2.133" fill="#B22222"/></g><g transform="matrix(.35278 0 0 -.35278 168.49 17.505)"><path d="m0 0c-0.502 0-0.91-0.408-0.91-0.91 0-0.503 0.408-0.911 0.91-0.911 0.503 0 0.91 0.408 0.91 0.911 0 0.502-0.407 0.91-0.91 0.91" fill="#B22222"/></g><g transform="matrix(.35278 0 0 -.35278 70.787 21.124)"><path d="m0 0c-0.502 0-0.91-0.408-0.91-0.91 0-0.503 0.408-0.91 0.91-0.91 0.503 0 0.91 0.407 0.91 0.91 0 0.502-0.407 0.91-0.91 0.91" fill="#B22222"/></g><g transform="matrix(.35278 0 0 -.35278 74.406 20.692)"><path d="m0 0c-1.178 0-2.133-0.955-2.133-2.133s0.955-2.133 2.133-2.133 2.133 0.955 2.133 2.133-0.955 2.133-2.133 2.133" fill="#B22222"/></g><g transform="matrix(.35278 0 0 -.35278 78.024 20.341)"><path d="m0 0c-1.728 0-3.128-1.401-3.128-3.129 0-1.727 1.4-3.128 3.128-3.128s3.129 1.401 3.129 3.128c0 1.728-1.401 3.129-3.129 3.129" fill="#B22222"/></g><g transform="matrix(.35278 0 0 -.35278 81.643 20.03)"><path d="m0 0c-2.215 0-4.01-1.795-4.01-4.01s1.795-4.011 4.01-4.011 4.011 1.796 4.011 4.011-1.796 4.01-4.011 4.01" fill="#B22222"/></g><g transform="matrix(.35278 0 0 -.35278 85.261 19.779)"><path d="m0 0c-2.607 0-4.721-2.114-4.721-4.722 0-2.607 2.114-4.721 4.721-4.721 2.608 0 4.722 2.114 4.722 4.721 0 2.608-2.114 4.722-4.722 4.722" fill="#B22222"/></g><g transform="matrix(.35278 0 0 -.35278 154.01 19.809)"><path d="m0 0c-2.56 0-4.636-2.076-4.636-4.636 0-2.561 2.076-4.637 4.636-4.637 2.561 0 4.636 2.076 4.636 4.637 0 2.56-2.075 4.636-4.636 4.636" fill="#B22222"/></g><g transform="matrix(.35278 0 0 -.35278 157.63 20.05)"><path d="m0 0c-2.183 0-3.953-1.77-3.953-3.954 0-2.183 1.77-3.953 3.953-3.953 2.184 0 3.954 1.77 3.954 3.953 0 2.184-1.77 3.954-3.954 3.954" fill="#B22222"/></g><g transform="matrix(.35278 0 0 -.35278 161.25 20.391)"><path d="m0 0c-1.649 0-2.986-1.337-2.986-2.987 0-1.649 1.337-2.986 2.986-2.986 1.65 0 2.987 1.337 2.987 2.986 0 1.65-1.337 2.987-2.987 2.987" fill="#B22222"/></g><g transform="matrix(.35278 0 0 -.35278 164.87 20.763)"><path d="m0 0c-1.068 0-1.934-0.866-1.934-1.934s0.866-1.934 1.934-1.934 1.934 0.866 1.934 1.934-0.866 1.934-1.934 1.934" fill="#B22222"/></g><g transform="matrix(.35278 0 0 -.35278 168.49 21.184)"><path d="m0 0c-0.408 0-0.739-0.331-0.739-0.74 0-0.408 0.331-0.739 0.739-0.739s0.739 0.331 0.739 0.739c0 0.409-0.331 0.74-0.739 0.74" fill="#B22222"/></g><g transform="matrix(.35278 0 0 -.35278 70.787 24.853)"><path d="m0 0c-0.33 0-0.597-0.267-0.597-0.597s0.267-0.598 0.597-0.598 0.597 0.268 0.597 0.598-0.267 0.597-0.597 0.597" fill="#B22222"/></g><g transform="matrix(.35278 0 0 -.35278 74.406 24.431)"><path d="m0 0c-0.99 0-1.792-0.802-1.792-1.792s0.802-1.792 1.792-1.792 1.792 0.802 1.792 1.792-0.802 1.792-1.792 1.792" fill="#B22222"/></g><g transform="matrix(.35278 0 0 -.35278 78.024 24.05)"><path d="m0 0c-1.587 0-2.873-1.286-2.873-2.873 0-1.586 1.286-2.872 2.873-2.872s2.873 1.286 2.873 2.872c0 1.587-1.286 2.873-2.873 2.873" fill="#B22222"/></g><g transform="matrix(.35278 0 0 -.35278 81.643 23.719)"><path d="m0 0c-2.105 0-3.811-1.707-3.811-3.811 0-2.106 1.706-3.812 3.811-3.812s3.812 1.706 3.812 3.812c0 2.104-1.707 3.811-3.812 3.811" fill="#B22222"/></g><g transform="matrix(.35278 0 0 -.35278 85.261 23.468)"><path d="m0 0c-2.498 0-4.522-2.025-4.522-4.522 0-2.498 2.024-4.523 4.522-4.523s4.523 2.025 4.523 4.523c0 2.497-2.025 4.522-4.523 4.522" fill="#B22222"/></g><g transform="matrix(.35278 0 0 -.35278 154.01 23.498)"><path d="m0 0c-2.451 0-4.437-1.986-4.437-4.437 0-2.45 1.986-4.437 4.437-4.437s4.437 1.987 4.437 4.437c0 2.451-1.986 4.437-4.437 4.437" fill="#B22222"/></g><g transform="matrix(.35278 0 0 -.35278 157.63 23.759)"><path d="m0 0c-2.042 0-3.697-1.655-3.697-3.698 0-2.042 1.655-3.698 3.697-3.698s3.698 1.656 3.698 3.698c0 2.043-1.656 3.698-3.698 3.698" fill="#B22222"/></g><g transform="matrix(.35278 0 0 -.35278 161.25 24.1)"><path d="m0 0c-1.508 0-2.73-1.222-2.73-2.73s1.222-2.731 2.73-2.731 2.731 1.223 2.731 2.731-1.223 2.73-2.731 2.73" fill="#B22222"/></g><g transform="matrix(.35278 0 0 -.35278 164.87 24.461)"><path d="m0 0c-0.942 0-1.706-0.764-1.706-1.707 0-0.942 0.764-1.706 1.706-1.706 0.943 0 1.707 0.764 1.707 1.706 0 0.943-0.764 1.707-1.707 1.707" fill="#B22222"/></g><g transform="matrix(.35278 0 0 -.35278 168.49 24.873)"><path d="m0 0c-0.298 0-0.54-0.242-0.54-0.54 0-0.299 0.242-0.541 0.54-0.541s0.541 0.242 0.541 0.541c0 0.298-0.243 0.54-0.541 0.54" fill="#B22222"/></g><g transform="matrix(.35278 0 0 -.35278 70.787 28.572)"><path d="m0 0c-0.173 0-0.313-0.14-0.313-0.313s0.14-0.313 0.313-0.313 0.313 0.14 0.313 0.313-0.14 0.313-0.313 0.313" fill="#B22222"/></g><g transform="matrix(.35278 0 0 -.35278 74.406 28.16)"><path d="m0 0c-0.817 0-1.479-0.662-1.479-1.479s0.662-1.479 1.479-1.479 1.479 0.662 1.479 1.479-0.662 1.479-1.479 1.479" fill="#B22222"/></g><g transform="matrix(.35278 0 0 -.35278 78.024 27.789)"><path d="m0 0c-1.398 0-2.531-1.133-2.531-2.532 0-1.398 1.133-2.531 2.531-2.531s2.532 1.133 2.532 2.531c0 1.399-1.134 2.532-2.532 2.532" fill="#B22222"/></g><g transform="matrix(.35278 0 0 -.35278 81.643 27.458)"><path d="m0 0c-1.916 0-3.47-1.554-3.47-3.47 0-1.917 1.554-3.47 3.47-3.47 1.917 0 3.47 1.553 3.47 3.47 0 1.916-1.553 3.47-3.47 3.47" fill="#B22222"/></g><g transform="matrix(.35278 0 0 -.35278 85.261 27.187)"><path d="m0 0c-2.34 0-4.238-1.897-4.238-4.238 0-2.34 1.898-4.238 4.238-4.238 2.341 0 4.238 1.898 4.238 4.238 0 2.341-1.897 4.238-4.238 4.238" fill="#B22222"/></g><g transform="matrix(.35278 0 0 -.35278 88.88 26.966)"><path d="m0 0c-2.686 0-4.863-2.177-4.863-4.864 0-2.686 2.177-4.863 4.863-4.863 2.687 0 4.864 2.177 4.864 4.863 0 2.687-2.177 4.864-4.864 4.864" fill="#B22222"/></g><g transform="matrix(.35278 0 0 -.35278 150.4 27.006)"><path d="m0 0c-2.623 0-4.75-2.127-4.75-4.75s2.127-4.75 4.75-4.75 4.75 2.127 4.75 4.75-2.127 4.75-4.75 4.75" fill="#B22222"/></g><g transform="matrix(.35278 0 0 -.35278 154.01 27.237)"><path d="m0 0c-2.262 0-4.096-1.833-4.096-4.096 0-2.262 1.834-4.095 4.096-4.095s4.096 1.833 4.096 4.095c0 2.263-1.834 4.096-4.096 4.096" fill="#B22222"/></g><g transform="matrix(.35278 0 0 -.35278 157.63 27.518)"><path d="m0 0c-1.822 0-3.299-1.477-3.299-3.3 0-1.822 1.477-3.299 3.299-3.299s3.3 1.477 3.3 3.299c0 1.823-1.478 3.3-3.3 3.3" fill="#B22222"/></g><g transform="matrix(.35278 0 0 -.35278 161.25 27.829)"><path d="m0 0c-1.335 0-2.418-1.082-2.418-2.418 0-1.335 1.083-2.417 2.418-2.417 1.336 0 2.418 1.082 2.418 2.417 0 1.336-1.082 2.418-2.418 2.418" fill="#B22222"/></g><g transform="matrix(.35278 0 0 -.35278 164.87 28.231)"><path d="m0 0c-0.707 0-1.28-0.573-1.28-1.28 0-0.706 0.573-1.28 1.28-1.28s1.28 0.574 1.28 1.28c0 0.707-0.573 1.28-1.28 1.28" fill="#B22222"/></g><g transform="matrix(.35278 0 0 -.35278 168.49 28.632)"><path d="m0 0c-0.078 0-0.142-0.064-0.142-0.142 0-0.079 0.064-0.142 0.142-0.142 0.079 0 0.142 0.063 0.142 0.142 0 0.078-0.063 0.142-0.142 0.142" fill="#B22222"/></g><g transform="matrix(.35278 0 0 -.35278 74.406 31.959)"><path d="m0 0c-0.534 0-0.967-0.433-0.967-0.967s0.433-0.967 0.967-0.967 0.967 0.433 0.967 0.967-0.433 0.967-0.967 0.967" fill="#B22222"/></g><g transform="matrix(.35278 0 0 -.35278 78.024 31.568)"><path d="m0 0c-1.147 0-2.076-0.93-2.076-2.076 0-1.147 0.929-2.077 2.076-2.077s2.077 0.93 2.077 2.077c0 1.146-0.93 2.076-2.077 2.076" fill="#B22222"/></g><g transform="matrix(.35278 0 0 -.35278 81.643 31.227)"><path d="m0 0c-1.681 0-3.043-1.362-3.043-3.043s1.362-3.044 3.043-3.044 3.044 1.363 3.044 3.044-1.363 3.043-3.044 3.043" fill="#B22222"/></g><g transform="matrix(.35278 0 0 -.35278 85.261 30.946)"><path d="m0 0c-2.12 0-3.84-1.719-3.84-3.84s1.72-3.84 3.84-3.84c2.121 0 3.84 1.719 3.84 3.84s-1.719 3.84-3.84 3.84" fill="#B22222"/></g><g transform="matrix(.35278 0 0 -.35278 88.88 30.705)"><path d="m0 0c-2.498 0-4.522-2.025-4.522-4.522 0-2.498 2.024-4.523 4.522-4.523s4.523 2.025 4.523 4.523c0 2.497-2.025 4.522-4.523 4.522" fill="#B22222"/></g><g transform="matrix(.35278 0 0 -.35278 150.4 30.735)"><path d="m0 0c-2.451 0-4.437-1.987-4.437-4.437 0-2.451 1.986-4.437 4.437-4.437s4.437 1.986 4.437 4.437c0 2.45-1.986 4.437-4.437 4.437" fill="#B22222"/></g><g transform="matrix(.35278 0 0 -.35278 154.01 30.976)"><path d="m0 0c-2.073 0-3.754-1.681-3.754-3.754 0-2.074 1.681-3.755 3.754-3.755 2.074 0 3.755 1.681 3.755 3.755 0 2.073-1.681 3.754-3.755 3.754" fill="#B22222"/></g><g transform="matrix(.35278 0 0 -.35278 157.63 31.267)"><path d="m0 0c-1.618 0-2.93-1.312-2.93-2.93s1.312-2.93 2.93-2.93 2.93 1.312 2.93 2.93-1.312 2.93-2.93 2.93" fill="#B22222"/></g><g transform="matrix(.35278 0 0 -.35278 161.25 31.618)"><path d="m0 0c-1.068 0-1.934-0.866-1.934-1.934 0-1.069 0.866-1.934 1.934-1.934s1.934 0.865 1.934 1.934c0 1.068-0.866 1.934-1.934 1.934" fill="#B22222"/></g><g transform="matrix(.35278 0 0 -.35278 164.87 32.01)"><path d="m0 0c-0.455 0-0.825-0.369-0.825-0.825 0-0.455 0.37-0.825 0.825-0.825 0.456 0 0.825 0.37 0.825 0.825 0 0.456-0.369 0.825-0.825 0.825" fill="#B22222"/></g><g transform="matrix(.35278 0 0 -.35278 74.406 35.759)"><path d="m0 0c-0.251 0-0.455-0.204-0.455-0.455 0-0.252 0.204-0.455 0.455-0.455s0.455 0.203 0.455 0.455c0 0.251-0.204 0.455-0.455 0.455" fill="#B22222"/></g><g transform="matrix(.35278 0 0 -.35278 78.024 35.367)"><path d="m0 0c-0.864 0-1.564-0.7-1.564-1.564s0.7-1.564 1.564-1.564 1.565 0.7 1.565 1.564-0.701 1.564-1.565 1.564" fill="#B22222"/></g><g transform="matrix(.35278 0 0 -.35278 81.643 35.026)"><path d="m0 0c-1.398 0-2.531-1.134-2.531-2.532s1.133-2.531 2.531-2.531 2.532 1.133 2.532 2.531-1.134 2.532-2.532 2.532" fill="#B22222"/></g><g transform="matrix(.35278 0 0 -.35278 85.261 34.735)"><path d="m0 0c-1.854 0-3.356-1.503-3.356-3.356 0-1.854 1.502-3.357 3.356-3.357s3.356 1.503 3.356 3.357c0 1.853-1.502 3.356-3.356 3.356" fill="#B22222"/></g><g transform="matrix(.35278 0 0 -.35278 88.88 34.484)"><path d="m0 0c-2.246 0-4.067-1.821-4.067-4.067 0-2.247 1.821-4.068 4.067-4.068 2.247 0 4.068 1.821 4.068 4.068 0 2.246-1.821 4.067-4.068 4.067" fill="#B22222"/></g><g transform="matrix(.35278 0 0 -.35278 92.498 34.284)"><path d="m0 0c-2.56 0-4.636-2.076-4.636-4.636 0-2.561 2.076-4.637 4.636-4.637 2.561 0 4.636 2.076 4.636 4.637 0 2.56-2.075 4.636-4.636 4.636" fill="#B22222"/></g><g transform="matrix(.35278 0 0 -.35278 146.78 34.314)"><path d="m0 0c-2.513 0-4.551-2.037-4.551-4.551 0-2.513 2.038-4.551 4.551-4.551 2.514 0 4.551 2.038 4.551 4.551 0 2.514-2.037 4.551-4.551 4.551" fill="#B22222"/></g><g transform="matrix(.35278 0 0 -.35278 150.4 34.524)"><path d="m0 0c-2.183 0-3.953-1.77-3.953-3.954 0-2.183 1.77-3.953 3.953-3.953s3.954 1.77 3.954 3.953c0 2.184-1.771 3.954-3.954 3.954" fill="#B22222"/></g><g transform="matrix(.35278 0 0 -.35278 154.01 34.775)"><path d="m0 0c-1.791 0-3.242-1.452-3.242-3.243s1.451-3.242 3.242-3.242 3.243 1.451 3.243 3.242-1.452 3.243-3.243 3.243" fill="#B22222"/></g><g transform="matrix(.35278 0 0 -.35278 157.63 35.066)"><path d="m0 0c-1.335 0-2.418-1.082-2.418-2.418 0-1.335 1.083-2.417 2.418-2.417 1.336 0 2.418 1.082 2.418 2.417 0 1.336-1.082 2.418-2.418 2.418" fill="#B22222"/></g><g transform="matrix(.35278 0 0 -.35278 161.25 35.417)"><path d="m0 0c-0.785 0-1.422-0.637-1.422-1.422s0.637-1.422 1.422-1.422c0.786 0 1.422 0.637 1.422 1.422s-0.636 1.422-1.422 1.422" fill="#B22222"/></g><g transform="matrix(.35278 0 0 -.35278 164.87 35.809)"><path d="m0 0c-0.173 0-0.313-0.14-0.313-0.313s0.14-0.313 0.313-0.313 0.313 0.14 0.313 0.313-0.14 0.313-0.313 0.313" fill="#B22222"/></g><g transform="matrix(.35278 0 0 -.35278 78.024 39.217)"><path d="m0 0c-0.502 0-0.91-0.408-0.91-0.91 0-0.503 0.408-0.911 0.91-0.911 0.503 0 0.91 0.408 0.91 0.911 0 0.502-0.407 0.91-0.91 0.91" fill="#B22222"/></g><g transform="matrix(.35278 0 0 -.35278 81.643 38.885)"><path d="m0 0c-1.021 0-1.849-0.828-1.849-1.849s0.828-1.849 1.849-1.849 1.849 0.828 1.849 1.849-0.828 1.849-1.849 1.849" fill="#B22222"/></g><g transform="matrix(.35278 0 0 -.35278 85.261 38.575)"><path d="m0 0c-1.508 0-2.73-1.222-2.73-2.73s1.222-2.731 2.73-2.731 2.731 1.223 2.731 2.731-1.223 2.73-2.731 2.73" fill="#B22222"/></g><g transform="matrix(.35278 0 0 -.35278 88.88 38.293)"><path d="m0 0c-1.947 0-3.527-1.579-3.527-3.527s1.58-3.527 3.527-3.527c1.948 0 3.527 1.579 3.527 3.527s-1.579 3.527-3.527 3.527" fill="#B22222"/></g><g transform="matrix(.35278 0 0 -.35278 92.498 38.093)"><path d="m0 0c-2.262 0-4.096-1.834-4.096-4.096s1.834-4.096 4.096-4.096 4.096 1.834 4.096 4.096-1.834 4.096-4.096 4.096" fill="#B22222"/></g><g transform="matrix(.35278 0 0 -.35278 96.117 37.922)"><path d="m0 0c-2.529 0-4.579-2.051-4.579-4.579 0-2.53 2.05-4.58 4.579-4.58s4.58 2.05 4.58 4.58c0 2.528-2.051 4.579-4.58 4.579" fill="#B22222"/></g><g transform="matrix(.35278 0 0 -.35278 143.16 37.932)"><path d="m0 0c-2.513 0-4.551-2.037-4.551-4.551 0-2.513 2.038-4.551 4.551-4.551 2.514 0 4.551 2.038 4.551 4.551 0 2.514-2.037 4.551-4.551 4.551" fill="#B22222"/></g><g transform="matrix(.35278 0 0 -.35278 146.78 38.103)"><path d="m0 0c-2.246 0-4.067-1.821-4.067-4.067s1.821-4.068 4.067-4.068c2.247 0 4.068 1.822 4.068 4.068s-1.821 4.067-4.068 4.067" fill="#B22222"/></g><g transform="matrix(.35278 0 0 -.35278 150.4 38.334)"><path d="m0 0c-1.885 0-3.413-1.529-3.413-3.413 0-1.885 1.528-3.413 3.413-3.413s3.413 1.528 3.413 3.413c0 1.884-1.528 3.413-3.413 3.413" fill="#B22222"/></g><g transform="matrix(.35278 0 0 -.35278 154.01 38.615)"><path d="m0 0c-1.445 0-2.617-1.172-2.617-2.617s1.172-2.616 2.617-2.616 2.617 1.171 2.617 2.616-1.172 2.617-2.617 2.617" fill="#B22222"/></g><g transform="matrix(.35278 0 0 -.35278 157.63 38.906)"><path d="m0 0c-0.99 0-1.792-0.802-1.792-1.792 0-0.989 0.802-1.792 1.792-1.792s1.792 0.803 1.792 1.792c0 0.99-0.802 1.792-1.792 1.792" fill="#B22222"/></g><g transform="matrix(.35278 0 0 -.35278 161.25 39.297)"><path d="m0 0c-0.377 0-0.682-0.306-0.682-0.683s0.305-0.682 0.682-0.682 0.683 0.305 0.683 0.682-0.306 0.683-0.683 0.683" fill="#B22222"/></g><g transform="matrix(.35278 0 0 -.35278 78.024 43.106)"><path d="m0 0c-0.078 0-0.142-0.064-0.142-0.142 0-0.079 0.064-0.142 0.142-0.142 0.079 0 0.142 0.063 0.142 0.142 0 0.078-0.063 0.142-0.142 0.142" fill="#B22222"/></g><g transform="matrix(.35278 0 0 -.35278 81.643 42.755)"><path d="m0 0c-0.628 0-1.138-0.51-1.138-1.138s0.51-1.138 1.138-1.138c0.629 0 1.138 0.51 1.138 1.138s-0.509 1.138-1.138 1.138" fill="#B22222"/></g><g transform="matrix(.35278 0 0 -.35278 85.261 42.424)"><path d="m0 0c-1.147 0-2.076-0.93-2.076-2.076 0-1.147 0.929-2.077 2.076-2.077s2.077 0.93 2.077 2.077c0 1.146-0.93 2.076-2.077 2.076" fill="#B22222"/></g><g transform="matrix(.35278 0 0 -.35278 88.88 42.163)"><path d="m0 0c-1.555 0-2.815-1.261-2.815-2.816s1.26-2.816 2.815-2.816c1.556 0 2.816 1.261 2.816 2.816s-1.26 2.816-2.816 2.816" fill="#B22222"/></g><g transform="matrix(.35278 0 0 -.35278 92.498 41.932)"><path d="m0 0c-1.916 0-3.47-1.553-3.47-3.47 0-1.916 1.554-3.47 3.47-3.47 1.917 0 3.47 1.554 3.47 3.47 0 1.917-1.553 3.47-3.47 3.47" fill="#B22222"/></g><g transform="matrix(.35278 0 0 -.35278 96.117 41.721)"><path d="m0 0c-2.246 0-4.067-1.821-4.067-4.067s1.821-4.068 4.067-4.068c2.247 0 4.068 1.822 4.068 4.068s-1.821 4.067-4.068 4.067" fill="#B22222"/></g><g transform="matrix(.35278 0 0 -.35278 99.735 41.561)"><path d="m0 0c-2.498 0-4.522-2.025-4.522-4.522 0-2.498 2.024-4.523 4.522-4.523s4.523 2.025 4.523 4.523c0 2.497-2.025 4.522-4.523 4.522" fill="#B22222"/></g><g transform="matrix(.35278 0 0 -.35278 103.35 41.47)"><path d="m0 0c-2.639 0-4.778-2.14-4.778-4.779s2.139-4.778 4.778-4.778 4.779 2.139 4.779 4.778-2.14 4.779-4.779 4.779" fill="#B22222"/></g><g transform="matrix(.35278 0 0 -.35278 135.92 41.481)"><path d="m0 0c-2.623 0-4.75-2.127-4.75-4.75 0-2.624 2.127-4.75 4.75-4.75 2.624 0 4.75 2.126 4.75 4.75 0 2.623-2.126 4.75-4.75 4.75" fill="#B22222"/></g><g transform="matrix(.35278 0 0 -.35278 139.54 41.591)"><path d="m0 0c-2.45 0-4.437-1.987-4.437-4.437 0-2.451 1.987-4.437 4.437-4.437 2.451 0 4.437 1.986 4.437 4.437 0 2.45-1.986 4.437-4.437 4.437" fill="#B22222"/></g><g transform="matrix(.35278 0 0 -.35278 143.16 41.762)"><path d="m0 0c-2.183 0-3.953-1.77-3.953-3.953 0-2.184 1.77-3.954 3.953-3.954 2.184 0 3.954 1.77 3.954 3.954 0 2.183-1.77 3.953-3.954 3.953" fill="#B22222"/></g><g transform="matrix(.35278 0 0 -.35278 146.78 41.952)"><path d="m0 0c-1.885 0-3.413-1.528-3.413-3.413s1.528-3.414 3.413-3.414 3.413 1.529 3.413 3.414-1.528 3.413-3.413 3.413" fill="#B22222"/></g><g transform="matrix(.35278 0 0 -.35278 150.4 42.193)"><path d="m0 0c-1.508 0-2.731-1.222-2.731-2.73s1.223-2.731 2.731-2.731 2.731 1.223 2.731 2.731-1.223 2.73-2.731 2.73" fill="#B22222"/></g><g transform="matrix(.35278 0 0 -.35278 154.01 42.474)"><path d="m0 0c-1.068 0-1.934-0.866-1.934-1.934s0.866-1.934 1.934-1.934 1.934 0.866 1.934 1.934-0.866 1.934-1.934 1.934" fill="#B22222"/></g><g transform="matrix(.35278 0 0 -.35278 157.63 42.815)"><path d="m0 0c-0.534 0-0.967-0.433-0.967-0.967s0.433-0.967 0.967-0.967 0.967 0.433 0.967 0.967-0.433 0.967-0.967 0.967" fill="#B22222"/></g><g transform="matrix(.35278 0 0 -.35278 81.643 46.644)"><path d="m0 0c-0.204 0-0.369-0.166-0.369-0.37s0.165-0.37 0.369-0.37 0.37 0.166 0.37 0.37-0.166 0.37-0.37 0.37" fill="#B22222"/></g><g transform="matrix(.35278 0 0 -.35278 85.261 46.353)"><path d="m0 0c-0.66 0-1.194-0.535-1.194-1.194 0-0.66 0.534-1.195 1.194-1.195s1.195 0.535 1.195 1.195c0 0.659-0.535 1.194-1.195 1.194" fill="#B22222"/></g><g transform="matrix(.35278 0 0 -.35278 88.88 46.042)"><path d="m0 0c-1.146 0-2.076-0.93-2.076-2.076 0-1.147 0.93-2.077 2.076-2.077 1.147 0 2.077 0.93 2.077 2.077 0 1.146-0.93 2.076-2.077 2.076" fill="#B22222"/></g><g transform="matrix(.35278 0 0 -.35278 92.498 45.812)"><path d="m0 0c-1.508 0-2.731-1.222-2.731-2.73 0-1.509 1.223-2.731 2.731-2.731s2.731 1.222 2.731 2.731c0 1.508-1.223 2.73-2.731 2.73" fill="#B22222"/></g><g transform="matrix(.35278 0 0 -.35278 96.117 45.611)"><path d="m0 0c-1.822 0-3.299-1.477-3.299-3.299 0-1.823 1.477-3.3 3.299-3.3s3.299 1.477 3.299 3.3c0 1.822-1.477 3.299-3.299 3.299" fill="#B22222"/></g><g transform="matrix(.35278 0 0 -.35278 99.735 45.43)"><path d="m0 0c-2.105 0-3.811-1.706-3.811-3.811s1.706-3.811 3.811-3.811 3.812 1.706 3.812 3.811-1.707 3.811-3.812 3.811" fill="#B22222"/></g><g transform="matrix(.35278 0 0 -.35278 103.35 45.29)"><path d="m0 0c-2.325 0-4.209-1.885-4.209-4.209 0-2.325 1.884-4.21 4.209-4.21s4.21 1.885 4.21 4.21c0 2.324-1.885 4.209-4.21 4.209" fill="#B22222"/></g><g transform="matrix(.35278 0 0 -.35278 106.97 45.199)"><path d="m0 0c-2.466 0-4.465-1.999-4.465-4.465 0-2.467 1.999-4.466 4.465-4.466s4.466 1.999 4.466 4.466c0 2.466-2 4.465-4.466 4.465" fill="#B22222"/></g><g transform="matrix(.35278 0 0 -.35278 110.59 45.139)"><path d="m0 0c-2.56 0-4.636-2.076-4.636-4.636 0-2.561 2.076-4.637 4.636-4.637 2.561 0 4.636 2.076 4.636 4.637 0 2.56-2.075 4.636-4.636 4.636" fill="#B22222"/></g><g transform="matrix(.35278 0 0 -.35278 114.21 45.089)"><path d="m0 0c-2.639 0-4.778-2.139-4.778-4.778s2.139-4.779 4.778-4.779 4.779 2.14 4.779 4.779-2.14 4.778-4.779 4.778" fill="#B22222"/></g><g transform="matrix(.35278 0 0 -.35278 119.74 46.775)"><path d="m0 0c0-2.671 2.165-4.835 4.835-4.835 2.671 0 4.836 2.164 4.836 4.835 0 2.67-2.165 4.844-4.836 4.844-2.67 0-4.835-2.174-4.835-4.844" fill="#B22222"/></g><g transform="matrix(.35278 0 0 -.35278 125.07 45.099)"><path d="m0 0c-2.623 0-4.75-2.127-4.75-4.75 0-2.624 2.127-4.751 4.75-4.751 2.624 0 4.75 2.127 4.75 4.751 0 2.623-2.126 4.75-4.75 4.75" fill="#B22222"/></g><g transform="matrix(.35278 0 0 -.35278 128.68 45.139)"><path d="m0 0c-2.56 0-4.636-2.076-4.636-4.636 0-2.561 2.076-4.637 4.636-4.637 2.561 0 4.636 2.076 4.636 4.637 0 2.56-2.075 4.636-4.636 4.636" fill="#B22222"/></g><g transform="matrix(.35278 0 0 -.35278 132.3 45.21)"><path d="m0 0c-2.45 0-4.437-1.987-4.437-4.437 0-2.451 1.987-4.437 4.437-4.437 2.451 0 4.437 1.986 4.437 4.437 0 2.45-1.986 4.437-4.437 4.437" fill="#B22222"/></g><g transform="matrix(.35278 0 0 -.35278 135.92 45.33)"><path d="m0 0c-2.262 0-4.096-1.833-4.096-4.095 0-2.263 1.834-4.096 4.096-4.096s4.096 1.833 4.096 4.096c0 2.262-1.834 4.095-4.096 4.095" fill="#B22222"/></g><g transform="matrix(.35278 0 0 -.35278 139.54 45.45)"><path d="m0 0c-2.073 0-3.754-1.681-3.754-3.754 0-2.074 1.681-3.755 3.754-3.755 2.074 0 3.755 1.681 3.755 3.755 0 2.073-1.681 3.754-3.755 3.754" fill="#B22222"/></g><g transform="matrix(.35278 0 0 -.35278 143.16 45.631)"><path d="m0 0c-1.791 0-3.242-1.452-3.242-3.242 0-1.791 1.451-3.243 3.242-3.243s3.243 1.452 3.243 3.243c0 1.79-1.452 3.242-3.243 3.242" fill="#B22222"/></g><g transform="matrix(.35278 0 0 -.35278 146.78 45.852)"><path d="m0 0c-1.445 0-2.617-1.171-2.617-2.616 0-1.446 1.172-2.617 2.617-2.617s2.617 1.171 2.617 2.617c0 1.445-1.172 2.616-2.617 2.616" fill="#B22222"/></g><g transform="matrix(.35278 0 0 -.35278 150.4 46.092)"><path d="m0 0c-1.068 0-1.934-0.866-1.934-1.934 0-1.069 0.866-1.934 1.934-1.934s1.934 0.865 1.934 1.934c0 1.068-0.866 1.934-1.934 1.934" fill="#B22222"/></g><g transform="matrix(.35278 0 0 -.35278 154.01 46.373)"><path d="m0 0c-0.628 0-1.138-0.509-1.138-1.137 0-0.629 0.51-1.139 1.138-1.139 0.629 0 1.138 0.51 1.138 1.139 0 0.628-0.509 1.137-1.138 1.137" fill="#B22222"/></g><g transform="matrix(.35278 0 0 -.35278 157.63 46.695)"><path d="m0 0c-0.126 0-0.227-0.102-0.227-0.227 0-0.126 0.101-0.228 0.227-0.228s0.228 0.102 0.228 0.228c0 0.125-0.102 0.227-0.228 0.227" fill="#B22222"/></g><g transform="matrix(.35278 0 0 -.35278 85.261 50.263)"><path d="m0 0c-0.204 0-0.37-0.166-0.37-0.37s0.166-0.37 0.37-0.37 0.37 0.166 0.37 0.37-0.166 0.37-0.37 0.37" fill="#B22222"/></g><g transform="matrix(.35278 0 0 -.35278 88.88 49.992)"><path d="m0 0c-0.628 0-1.137-0.509-1.137-1.138 0-0.628 0.509-1.138 1.137-1.138 0.629 0 1.138 0.51 1.138 1.138 0 0.629-0.509 1.138-1.138 1.138" fill="#B22222"/></g><g transform="matrix(.35278 0 0 -.35278 92.498 49.741)"><path d="m0 0c-1.021 0-1.849-0.828-1.849-1.849s0.828-1.848 1.849-1.848 1.849 0.827 1.849 1.848-0.828 1.849-1.849 1.849" fill="#B22222"/></g><g transform="matrix(.35278 0 0 -.35278 96.117 49.52)"><path d="m0 0c-1.367 0-2.474-1.108-2.474-2.475 0-1.366 1.107-2.474 2.474-2.474s2.475 1.108 2.475 2.474c0 1.367-1.108 2.475-2.475 2.475" fill="#B22222"/></g><g transform="matrix(.35278 0 0 -.35278 99.735 49.34)"><path d="m0 0c-1.649 0-2.986-1.337-2.986-2.987 0-1.649 1.337-2.986 2.986-2.986 1.65 0 2.987 1.337 2.987 2.986 0 1.65-1.337 2.987-2.987 2.987" fill="#B22222"/></g><g transform="matrix(.35278 0 0 -.35278 103.35 49.209)"><path d="m0 0c-1.854 0-3.356-1.503-3.356-3.356 0-1.854 1.502-3.356 3.356-3.356s3.356 1.502 3.356 3.356c0 1.853-1.502 3.356-3.356 3.356" fill="#B22222"/></g><g transform="matrix(.35278 0 0 -.35278 106.97 49.089)"><path d="m0 0c-2.042 0-3.697-1.656-3.697-3.698s1.655-3.698 3.697-3.698 3.698 1.656 3.698 3.698-1.656 3.698-3.698 3.698" fill="#B22222"/></g><g transform="matrix(.35278 0 0 -.35278 110.59 48.999)"><path d="m0 0c-2.183 0-3.953-1.77-3.953-3.954 0-2.183 1.77-3.953 3.953-3.953s3.954 1.77 3.954 3.953c0 2.184-1.771 3.954-3.954 3.954" fill="#B22222"/></g><g transform="matrix(.35278 0 0 -.35278 114.21 48.959)"><path d="m0 0c-2.246 0-4.067-1.821-4.067-4.067 0-2.247 1.821-4.068 4.067-4.068 2.247 0 4.068 1.821 4.068 4.068 0 2.246-1.821 4.067-4.068 4.067" fill="#B22222"/></g><g transform="matrix(.35278 0 0 -.35278 117.83 48.928)"><path d="m0 0c-2.293 0-4.152-1.859-4.152-4.153 0-2.293 1.859-4.152 4.152-4.152 2.294 0 4.153 1.859 4.153 4.152 0 2.294-1.859 4.153-4.153 4.153" fill="#B22222"/></g><g transform="matrix(.35278 0 0 -.35278 121.45 48.928)"><path d="m0 0c-2.293 0-4.152-1.859-4.152-4.153 0-2.293 1.859-4.152 4.152-4.152 2.294 0 4.153 1.859 4.153 4.152 0 2.294-1.859 4.153-4.153 4.153" fill="#B22222"/></g><g transform="matrix(.35278 0 0 -.35278 125.07 48.959)"><path d="m0 0c-2.246 0-4.067-1.821-4.067-4.067 0-2.247 1.821-4.068 4.067-4.068 2.247 0 4.068 1.821 4.068 4.068 0 2.246-1.821 4.067-4.068 4.067" fill="#B22222"/></g><g transform="matrix(.35278 0 0 -.35278 128.68 48.999)"><path d="m0 0c-2.183 0-3.953-1.77-3.953-3.954 0-2.183 1.77-3.953 3.953-3.953 2.184 0 3.954 1.77 3.954 3.953 0 2.184-1.77 3.954-3.954 3.954" fill="#B22222"/></g><g transform="matrix(.35278 0 0 -.35278 132.3 49.089)"><path d="m0 0c-2.042 0-3.697-1.656-3.697-3.698s1.655-3.698 3.697-3.698 3.698 1.656 3.698 3.698-1.656 3.698-3.698 3.698" fill="#B22222"/></g><g transform="matrix(.35278 0 0 -.35278 135.92 49.229)"><path d="m0 0c-1.822 0-3.299-1.478-3.299-3.3s1.477-3.299 3.299-3.299 3.299 1.477 3.299 3.299-1.477 3.3-3.299 3.3" fill="#B22222"/></g><g transform="matrix(.35278 0 0 -.35278 139.54 49.36)"><path d="m0 0c-1.618 0-2.929-1.312-2.929-2.93s1.311-2.93 2.929-2.93 2.93 1.312 2.93 2.93-1.312 2.93-2.93 2.93" fill="#B22222"/></g><g transform="matrix(.35278 0 0 -.35278 143.16 49.541)"><path d="m0 0c-1.335 0-2.418-1.082-2.418-2.418 0-1.335 1.083-2.417 2.418-2.417 1.336 0 2.418 1.082 2.418 2.417 0 1.336-1.082 2.418-2.418 2.418" fill="#B22222"/></g><g transform="matrix(.35278 0 0 -.35278 146.78 49.761)"><path d="m0 0c-0.99 0-1.792-0.802-1.792-1.792s0.802-1.792 1.792-1.792 1.792 0.802 1.792 1.792-0.802 1.792-1.792 1.792" fill="#B22222"/></g><g transform="matrix(.35278 0 0 -.35278 150.4 50.052)"><path d="m0 0c-0.534 0-0.967-0.433-0.967-0.967s0.433-0.967 0.967-0.967 0.967 0.433 0.967 0.967-0.433 0.967-0.967 0.967" fill="#B22222"/></g><g transform="matrix(.35278 0 0 -.35278 154.01 50.313)"><path d="m0 0c-0.126 0-0.227-0.102-0.227-0.228 0-0.125 0.101-0.227 0.227-0.227s0.228 0.102 0.228 0.227c0 0.126-0.102 0.228-0.228 0.228" fill="#B22222"/></g><g transform="matrix(.35278 0 0 -.35278 88.88 53.962)"><path d="m0 0c-0.078 0-0.142-0.064-0.142-0.142 0-0.079 0.064-0.142 0.142-0.142 0.079 0 0.142 0.063 0.142 0.142 0 0.078-0.063 0.142-0.142 0.142" fill="#B22222"/></g><g transform="matrix(.35278 0 0 -.35278 92.498 53.721)"><path d="m0 0c-0.455 0-0.825-0.369-0.825-0.825 0-0.455 0.37-0.825 0.825-0.825 0.456 0 0.825 0.37 0.825 0.825 0 0.456-0.369 0.825-0.825 0.825" fill="#B22222"/></g><g transform="matrix(.35278 0 0 -.35278 96.117 53.49)"><path d="m0 0c-0.817 0-1.479-0.662-1.479-1.479s0.662-1.479 1.479-1.479 1.479 0.662 1.479 1.479-0.662 1.479-1.479 1.479" fill="#B22222"/></g><g transform="matrix(.35278 0 0 -.35278 99.735 53.31)"><path d="m0 0c-1.099 0-1.991-0.891-1.991-1.991 0-1.099 0.892-1.991 1.991-1.991 1.1 0 1.991 0.892 1.991 1.991 0 1.1-0.891 1.991-1.991 1.991" fill="#B22222"/></g><g transform="matrix(.35278 0 0 -.35278 103.35 53.139)"><path d="m0 0c-1.367 0-2.474-1.108-2.474-2.474 0-1.367 1.107-2.475 2.474-2.475s2.475 1.108 2.475 2.475c0 1.366-1.108 2.474-2.475 2.474" fill="#B22222"/></g><g transform="matrix(.35278 0 0 -.35278 106.97 53.019)"><path d="m0 0c-1.555 0-2.816-1.261-2.816-2.816s1.261-2.816 2.816-2.816c1.556 0 2.816 1.261 2.816 2.816s-1.26 2.816-2.816 2.816" fill="#B22222"/></g><g transform="matrix(.35278 0 0 -.35278 110.59 52.938)"><path d="m0 0c-1.681 0-3.043-1.362-3.043-3.043s1.362-3.044 3.043-3.044 3.044 1.363 3.044 3.044-1.363 3.043-3.044 3.043" fill="#B22222"/></g><g transform="matrix(.35278 0 0 -.35278 114.21 52.888)"><path d="m0 0c-1.759 0-3.185-1.426-3.185-3.186 0-1.759 1.426-3.185 3.185-3.185s3.186 1.426 3.186 3.185c0 1.76-1.427 3.186-3.186 3.186" fill="#B22222"/></g><g transform="matrix(.35278 0 0 -.35278 117.83 52.868)"><path d="m0 0c-1.791 0-3.242-1.452-3.242-3.243s1.451-3.242 3.242-3.242 3.243 1.451 3.243 3.242-1.452 3.243-3.243 3.243" fill="#B22222"/></g><g transform="matrix(.35278 0 0 -.35278 121.45 52.868)"><path d="m0 0c-1.791 0-3.242-1.452-3.242-3.243s1.451-3.242 3.242-3.242 3.243 1.451 3.243 3.242-1.452 3.243-3.243 3.243" fill="#B22222"/></g><g transform="matrix(.35278 0 0 -.35278 125.07 52.908)"><path d="m0 0c-1.728 0-3.129-1.401-3.129-3.129s1.401-3.128 3.129-3.128 3.129 1.4 3.129 3.128-1.401 3.129-3.129 3.129" fill="#B22222"/></g><g transform="matrix(.35278 0 0 -.35278 128.68 52.958)"><path d="m0 0c-1.649 0-2.986-1.337-2.986-2.987 0-1.649 1.337-2.986 2.986-2.986 1.65 0 2.987 1.337 2.987 2.986 0 1.65-1.337 2.987-2.987 2.987" fill="#B22222"/></g><g transform="matrix(.35278 0 0 -.35278 132.3 53.049)"><path d="m0 0c-1.508 0-2.731-1.223-2.731-2.731s1.223-2.73 2.731-2.73 2.731 1.222 2.731 2.73-1.223 2.731-2.731 2.731" fill="#B22222"/></g><g transform="matrix(.35278 0 0 -.35278 135.92 53.159)"><path d="m0 0c-1.335 0-2.418-1.082-2.418-2.418 0-1.335 1.083-2.417 2.418-2.417 1.336 0 2.418 1.082 2.418 2.417 0 1.336-1.082 2.418-2.418 2.418" fill="#B22222"/></g><g transform="matrix(.35278 0 0 -.35278 139.54 53.33)"><path d="m0 0c-1.068 0-1.934-0.866-1.934-1.934s0.866-1.934 1.934-1.934 1.934 0.866 1.934 1.934-0.866 1.934-1.934 1.934" fill="#B22222"/></g><g transform="matrix(.35278 0 0 -.35278 143.16 53.51)"><path d="m0 0c-0.785 0-1.422-0.636-1.422-1.422s0.637-1.422 1.422-1.422c0.786 0 1.422 0.636 1.422 1.422s-0.636 1.422-1.422 1.422" fill="#B22222"/></g><g transform="matrix(.35278 0 0 -.35278 146.78 53.771)"><path d="m0 0c-0.377 0-0.682-0.306-0.682-0.683 0-0.376 0.305-0.682 0.682-0.682s0.683 0.306 0.683 0.682c0 0.377-0.306 0.683-0.683 0.683" fill="#B22222"/></g><g transform="matrix(.35278 0 0 -.35278 96.117 57.5)"><path d="m0 0c-0.204 0-0.37-0.165-0.37-0.37 0-0.204 0.166-0.37 0.37-0.37s0.37 0.166 0.37 0.37c0 0.205-0.166 0.37-0.37 0.37" fill="#B22222"/></g><g transform="matrix(.35278 0 0 -.35278 99.735 57.309)"><path d="m0 0c-0.502 0-0.91-0.407-0.91-0.91s0.408-0.91 0.91-0.91c0.503 0 0.91 0.407 0.91 0.91s-0.407 0.91-0.91 0.91" fill="#B22222"/></g><g transform="matrix(.35278 0 0 -.35278 103.35 57.159)"><path d="m0 0c-0.738 0-1.337-0.598-1.337-1.337 0-0.738 0.599-1.337 1.337-1.337s1.337 0.599 1.337 1.337c0 0.739-0.599 1.337-1.337 1.337" fill="#B22222"/></g><g transform="matrix(.35278 0 0 -.35278 106.97 56.998)"><path d="m0 0c-0.99 0-1.792-0.802-1.792-1.792 0-0.989 0.802-1.792 1.792-1.792s1.792 0.803 1.792 1.792c0 0.99-0.802 1.792-1.792 1.792" fill="#B22222"/></g><g transform="matrix(.35278 0 0 -.35278 110.59 56.928)"><path d="m0 0c-1.099 0-1.991-0.891-1.991-1.991 0-1.099 0.892-1.991 1.991-1.991 1.1 0 1.991 0.892 1.991 1.991 0 1.1-0.891 1.991-1.991 1.991" fill="#B22222"/></g><g transform="matrix(.35278 0 0 -.35278 114.21 56.878)"><path d="m0 0c-1.178 0-2.133-0.955-2.133-2.133s0.955-2.133 2.133-2.133 2.133 0.955 2.133 2.133-0.955 2.133-2.133 2.133" fill="#B22222"/></g><g transform="matrix(.35278 0 0 -.35278 117.83 56.828)"><path d="m0 0c-1.257 0-2.275-1.019-2.275-2.275 0-1.257 1.018-2.276 2.275-2.276s2.276 1.019 2.276 2.276c0 1.256-1.019 2.275-2.276 2.275" fill="#B22222"/></g><g transform="matrix(.35278 0 0 -.35278 121.45 56.858)"><path d="m0 0c-1.209 0-2.19-0.981-2.19-2.19 0-1.21 0.981-2.19 2.19-2.19 1.21 0 2.19 0.98 2.19 2.19 0 1.209-0.98 2.19-2.19 2.19" fill="#B22222"/></g><g transform="matrix(.35278 0 0 -.35278 125.07 56.878)"><path d="m0 0c-1.178 0-2.133-0.955-2.133-2.133s0.955-2.133 2.133-2.133 2.133 0.955 2.133 2.133-0.955 2.133-2.133 2.133" fill="#B22222"/></g><g transform="matrix(.35278 0 0 -.35278 128.68 56.948)"><path d="m0 0c-1.068 0-1.934-0.866-1.934-1.934s0.866-1.934 1.934-1.934 1.934 0.866 1.934 1.934-0.866 1.934-1.934 1.934" fill="#B22222"/></g><g transform="matrix(.35278 0 0 -.35278 132.3 57.029)"><path d="m0 0c-0.942 0-1.706-0.764-1.706-1.706 0-0.943 0.764-1.707 1.706-1.707 0.943 0 1.707 0.764 1.707 1.707 0 0.942-0.764 1.706-1.707 1.706" fill="#B22222"/></g><g transform="matrix(.35278 0 0 -.35278 135.92 57.179)"><path d="m0 0c-0.707 0-1.28-0.573-1.28-1.28s0.573-1.28 1.28-1.28 1.28 0.573 1.28 1.28-0.573 1.28-1.28 1.28" fill="#B22222"/></g><g transform="matrix(.35278 0 0 -.35278 139.54 57.34)"><path d="m0 0c-0.455 0-0.825-0.369-0.825-0.825 0-0.455 0.37-0.825 0.825-0.825 0.456 0 0.825 0.37 0.825 0.825 0 0.456-0.369 0.825-0.825 0.825" fill="#B22222"/></g><g transform="matrix(.35278 0 0 -.35278 143.16 57.52)"><path d="m0 0c-0.173 0-0.313-0.14-0.313-0.312 0-0.174 0.14-0.313 0.313-0.313s0.313 0.139 0.313 0.313c0 0.172-0.14 0.312-0.313 0.312" fill="#B22222"/></g><g transform="matrix(.35278 0 0 -.35278 103.35 61.169)"><path d="m0 0c-0.126 0-0.227-0.102-0.227-0.227 0-0.126 0.101-0.228 0.227-0.228s0.228 0.102 0.228 0.228c0 0.125-0.102 0.227-0.228 0.227" fill="#B22222"/></g><g transform="matrix(.35278 0 0 -.35278 106.97 61.058)"><path d="m0 0c-0.298 0-0.54-0.242-0.54-0.54 0-0.299 0.242-0.541 0.54-0.541 0.299 0 0.541 0.242 0.541 0.541 0 0.298-0.242 0.54-0.541 0.54" fill="#B22222"/></g><g transform="matrix(.35278 0 0 -.35278 110.59 60.988)"><path d="m0 0c-0.408 0-0.739-0.331-0.739-0.74 0-0.408 0.331-0.739 0.739-0.739s0.739 0.331 0.739 0.739c0 0.409-0.331 0.74-0.739 0.74" fill="#B22222"/></g><g transform="matrix(.35278 0 0 -.35278 114.21 60.908)"><path d="m0 0c-0.534 0-0.967-0.433-0.967-0.967s0.433-0.967 0.967-0.967 0.967 0.433 0.967 0.967-0.433 0.967-0.967 0.967" fill="#B22222"/></g><g transform="matrix(.35278 0 0 -.35278 117.83 60.878)"><path d="m0 0c-0.581 0-1.052-0.471-1.052-1.052 0-0.582 0.471-1.053 1.052-1.053s1.052 0.471 1.052 1.053c0 0.581-0.471 1.052-1.052 1.052" fill="#B22222"/></g><g transform="matrix(.35278 0 0 -.35278 121.45 60.878)"><path d="m0 0c-0.581 0-1.052-0.471-1.052-1.052 0-0.582 0.471-1.053 1.052-1.053 0.582 0 1.052 0.471 1.052 1.053 0 0.581-0.47 1.052-1.052 1.052" fill="#B22222"/></g><g transform="matrix(.35278 0 0 -.35278 125.07 60.928)"><path d="m0 0c-0.502 0-0.91-0.408-0.91-0.91 0-0.503 0.408-0.911 0.91-0.911 0.503 0 0.91 0.408 0.91 0.911 0 0.502-0.407 0.91-0.91 0.91" fill="#B22222"/></g><g transform="matrix(.35278 0 0 -.35278 128.68 60.988)"><path d="m0 0c-0.408 0-0.739-0.331-0.739-0.74 0-0.408 0.331-0.739 0.739-0.739 0.409 0 0.74 0.331 0.74 0.739 0 0.409-0.331 0.74-0.74 0.74" fill="#B22222"/></g><g transform="matrix(.35278 0 0 -.35278 132.3 61.058)"><path d="m0 0c-0.298 0-0.54-0.242-0.54-0.54 0-0.299 0.242-0.541 0.54-0.541s0.541 0.242 0.541 0.541c0 0.298-0.243 0.54-0.541 0.54" fill="#B22222"/></g><g transform="matrix(.35278 0 0 -.35278 135.92 61.199)"><path d="m0 0c-0.078 0-0.142-0.064-0.142-0.142 0-0.079 0.064-0.142 0.142-0.142 0.079 0 0.142 0.063 0.142 0.142 0 0.078-0.063 0.142-0.142 0.142" fill="#B22222"/></g><g transform="matrix(.35278 0 0 -.35278 99.277 -13.011)"><path d="m0 0c-0.023-0.019-0.045-0.038-0.067-0.057 0.043 0.011 0.083 0.029 0.127 0.039-0.02 5e-3 -0.04 0.013-0.06 0.018" fill="#B22222"/></g><g transform="matrix(.35278 0 0 -.35278 108.74 -18.023)"><path d="m0 0 0.024 9e-3c-3e-3 0.015-8e-3 0.029-0.011 0.044-3e-3 -0.018-0.01-0.035-0.013-0.053" fill="#B22222"/></g><g transform="matrix(.35278 0 0 -.35278 101.48 -14.333)"><path d="m0 0 0.057 0.039c-6e-3 0.029-0.017 0.055-0.022 0.084-9e-3 -0.042-0.025-0.081-0.035-0.123" fill="#B22222"/></g><g transform="matrix(.35278 0 0 -.35278 134.16 38.953)"><path d="m0 0c-8e-3 -4e-3 -0.015-9e-3 -0.022-0.012 2e-3 -8e-3 6e-3 -0.016 8e-3 -0.024 4e-3 0.012 0.01 0.024 0.014 0.036" fill="#B22222"/></g><path d="m116.14 26.854h-8.3926v-29.127h8.3926z" fill="#B22222"/><path d="m131.45 26.854h-8.3926v-29.127h8.3926z" fill="#B22222"/></g></svg>
