<?xml version="1.0" encoding="UTF-8"?>
<svg width="145.34mm" height="59mm" version="1.1" viewBox="0 0 145.34 59" xmlns="http://www.w3.org/2000/svg"><g transform="translate(-80.416 -57.009)"><g transform="matrix(.35278 0 0 -.35278 92.665 83.655)"><path d="m0 0c-5.524 0-7.666 4.509-7.666 11.048v14.092c0 3.494-1.804 6.425-5.749 6.425h-7.328v-31.114h-13.979v75.08h23.111c10.258 0 17.135-5.862 17.135-16.346v-10.597c0-5.637-2.593-9.807-8.455-11.611 5.862-1.579 8.68-6.539 8.68-11.386v-13.754c0-3.495 1.015-5.862 2.706-7.666v-4.171zm-8.117 58.622c0 3.381-1.465 5.411-4.96 5.411h-7.666v-22.096h7.102c3.608 0 5.524 1.917 5.524 5.975z" fill="#006400"/></g><g transform="matrix(.35278 0 0 -.35278 97.982 83.496)"><path d="m0 0v75.081h35.849v-12.063h-21.87v-18.601h15.106v-11.048h-15.106v-20.856h21.87v-12.513z" fill="#006400"/></g><g transform="matrix(.35278 0 0 -.35278 121.06 73.354)"><path d="m0 0h-9.131v-28.747h-13.979v75.08h23.11c10.597 0 17.023-6.087 17.023-16.909v-12.627c0-10.709-6.426-16.797-17.023-16.797m3.495 29.198c0 3.72-1.466 5.637-4.96 5.637h-7.666v-24.012h7.666c3.494 0 4.96 1.916 4.96 5.636z" fill="#006400"/></g><g transform="matrix(.35278 0 0 -.35278 141.37 83.655)"><path d="m0 0c-5.524 0-7.666 4.509-7.666 11.048v14.092c0 3.494-1.804 6.425-5.749 6.425h-7.328v-31.114h-13.979v75.08h23.11c10.259 0 17.136-5.862 17.136-16.346v-10.597c0-5.637-2.593-9.807-8.455-11.611 5.862-1.579 8.68-6.539 8.68-11.386v-13.754c0-3.495 1.015-5.862 2.706-7.666v-4.171zm-8.117 58.622c0 3.381-1.465 5.411-4.96 5.411h-7.666v-22.096h7.102c3.608 0 5.524 1.917 5.524 5.975z" fill="#006400"/></g><g transform="matrix(.35278 0 0 -.35278 146.26 83.496)"><path d="m0 0v75.081h35.849v-12.063h-21.87v-18.601h15.106v-11.048h-15.106v-20.856h21.87v-12.513z" fill="#006400"/></g><g transform="matrix(.35278 0 0 -.35278 172.71 83.496)"><path d="m0 0-14.542 32.016-5.299 11.95v-43.966h-12.852v75.081h12.063l13.866-32.581 4.96-11.949v44.53h12.626v-75.081z" fill="#006400"/></g><g transform="matrix(.35278 0 0 -.35278 186.61 83.496)"><path d="m0 0h-21.645v75.081h21.645c13.19 0 20.517-8.456 20.517-20.292v-35.173c0-11.95-7.327-19.616-20.517-19.616m6.426 54.676c0 5.411-2.255 8.342-7.441 8.342h-6.651v-50.955h6.651c5.186 0 7.441 2.931 7.441 8.229z" fill="#006400"/></g><g transform="matrix(.35278 0 0 -.35278 208.34 83.655)"><path d="m0 0c-5.524 0-7.666 4.509-7.666 11.048v14.092c0 3.494-1.804 6.425-5.749 6.425h-7.328v-31.114h-13.979v75.08h23.11c10.259 0 17.136-5.862 17.136-16.346v-10.597c0-5.637-2.593-9.807-8.455-11.611 5.862-1.579 8.68-6.539 8.68-11.386v-13.754c0-3.495 1.015-5.862 2.706-7.666v-4.171zm-8.117 58.622c0 3.381-1.465 5.411-4.96 5.411h-7.666v-22.096h7.102c3.608 0 5.524 1.917 5.524 5.975z" fill="#006400"/></g><g transform="matrix(.35278 0 0 -.35278 213.11 57.009)"><path d="m0 0v-75.081h35.85v12.514h-21.871v20.856h15.106v11.047h-15.106v18.601h21.871v12.063z" fill="#006400"/></g><g transform="matrix(.35278 0 0 -.35278 131.61 92.844)"><path d="m0 0v20.384h3.702v-17.087h10.599v-3.297z" fill="#006400"/></g><g transform="matrix(.35278 0 0 -.35278 133.76 90.774)"><path d="m0 0v14.534h8.19v-2.843h-5.267v-2.839h3.959v-2.617h-3.954v-3.291h5.262v-2.944z" fill="#006400"/></g><g transform="matrix(.35278 0 0 -.35278 93.022 85.667)"><path d="m0 0h-22.466c-8.312-3.683-13.106-11.571-13.106-20.969v-41.839c0-13.058 9.255-23.201 24.342-23.201 14.96 0 22.821 9.382 22.821 22.06v10.27h-14.073v-10.143c0-4.944-2.789-8.368-8.495-8.368-5.705 0-8.621 3.424-8.621 8.114v44.374c0 4.692 2.916 8.114 8.621 8.114 5.706 0 8.495-3.422 8.495-8.367v-10.143h14.073v10.27c0 8.991-3.955 16.323-11.591 19.828" fill="#006400"/></g><g transform="matrix(.35278 0 0 -.35278 112.18 85.667)"><path d="m0 0h-21.883c-8.221-3.534-13.048-11.229-13.048-20.843v-42.092c0-13.439 9.255-23.074 23.962-23.074 14.833 0 23.962 9.635 23.962 23.074v42.092c0 9.614-4.762 17.309-12.993 20.843m-2.855-63.949c0-4.944-2.916-8.241-8.114-8.241-5.072 0-7.988 3.297-7.988 8.241v44.121c0 4.944 2.916 8.24 7.988 8.24 5.198 0 8.114-3.296 8.114-8.24z" fill="#006400"/></g><g transform="matrix(.35278 0 0 -.35278 131.64 103.22)"><path d="m0 0-5.578 13.439-15.454 36.31h-13.706v-84.107h14.453v49.445l5.959-13.439 16.355-36.006h12.171v61.139h-14.2z" fill="#006400"/></g><g transform="matrix(.35278 0 0 -.35278 138.13 90.47)"><path d="m0 0h15.594v-70.491h15.848v70.491h15.468v13.616h-46.91z" fill="#006400"/></g><g transform="matrix(.35278 0 0 -.35278 156.79 85.667)"><path d="m0 0v-84.107h15.721v34.992h8.241c4.437 0 6.466-3.296 6.466-7.227v-15.848c0-7.353 2.409-12.425 8.621-12.425h9.509v4.692c-1.902 2.028-3.043 4.691-3.043 8.621v15.467c0 5.452-3.17 11.03-9.762 12.805 6.592 2.029 9.508 6.72 9.508 13.059v11.918c0 10.262-5.859 16.586-14.986 18.053h-6.483zm29.921-18.687v-12.044c0-4.565-2.155-6.72-6.213-6.72h-7.987v24.849h8.621c3.931 0 5.579-2.282 5.579-6.085" fill="#006400"/></g><g transform="matrix(.35278 0 0 -.35278 200.72 85.667)"><path d="m0 0h-15.721v-84.107h39.303v13.946h-23.582z" fill="#006400"/></g><g transform="matrix(.35278 0 0 -.35278 211.49 85.667)"><path d="m0 0v-84.108h40.317v14.074h-24.596v23.454h16.99v12.425h-16.99v20.919h24.596v13.236z" fill="#006400"/></g><g transform="matrix(.35278 0 0 -.35278 188.9 86.214)"><path d="m0 0h3.27l-1.663 1.552h-31.146l-1.663-1.552h3.003c-1.775-1.13-3.335-2.489-4.658-4.05-3.431-3.962-5.323-9.225-5.323-15.241v-42.092c0-13.439 9.256-23.074 23.962-23.074 4.159 0 7.869 0.758 11.056 2.144v-0.041c8.24 3.536 13.082 11.24 13.082 20.871v42.149c0 8.405-3.617 15.324-9.92 19.334m-6.104-62.397c0-4.945-2.915-8.241-8.114-8.241-5.071 0-7.987 3.296-7.987 8.241v44.12c0 4.945 2.916 8.241 7.987 8.241 5.199 0 8.114-3.296 8.114-8.241z" fill="#006400"/></g></g></svg>
